<svg xmlns="http://www.w3.org/2000/svg" preserveAspectRatio="none" viewBox="0 0 100 1"><rect fill="oklch(55.3% 0.195 38.402)" height="0.5881154903233573" width="1" x="0" y="0.4118845096766427"/><rect fill="oklch(55.3% 0.195 38.402)" height="0.6966869485191935" width="1" x="1" y="0.30331305148080645"/><rect fill="oklch(55.3% 0.195 38.402)" height="0.7372010535057997" width="1" x="2" y="0.2627989464942003"/><rect fill="oklch(55.3% 0.195 38.402)" height="0.9191270913022467" width="1" x="3" y="0.08087290869775332"/><rect fill="oklch(55.3% 0.195 38.402)" height="0.7097998476295645" width="1" x="4" y="0.2902001523704355"/><rect fill="oklch(55.3% 0.195 38.402)" height="0.5520653291430269" width="1" x="5" y="0.44793467085697314"/><rect fill="oklch(55.3% 0.195 38.402)" height="1" width="1" x="6" y="0"/><rect fill="oklch(55.3% 0.195 38.402)" height="0.7111740656972078" width="1" x="7" y="0.28882593430279224"/><rect fill="oklch(55.3% 0.195 38.402)" height="0.7088411494605067" width="1" x="8" y="0.2911588505394933"/><rect fill="oklch(55.3% 0.195 38.402)" height="0.9081700198481897" width="1" x="9" y="0.09182998015181032"/><rect fill="oklch(55.3% 0.195 38.402)" height="0.6899989704816261" width="1" x="10" y="0.31000102951837394"/><rect fill="oklch(55.3% 0.195 38.402)" height="0.6470443831228665" width="1" x="11" y="0.3529556168771335"/><rect fill="oklch(55.3% 0.195 38.402)" height="0.785912479596551" width="1" x="12" y="0.21408752040344903"/><rect fill="oklch(55.3% 0.195 38.402)" height="0.8861184816515743" width="1" x="13" y="0.11388151834842575"/><rect fill="oklch(55.3% 0.195 38.402)" height="0.678212686326259" width="1" x="14" y="0.321787313673741"/><rect fill="oklch(55.3% 0.195 38.402)" height="0.7569484418344492" width="1" x="15" y="0.2430515581655508"/><rect fill="oklch(55.3% 0.195 38.402)" height="0.6742839017796138" width="1" x="16" y="0.32571609822038616"/><rect fill="oklch(55.3% 0.195 38.402)" height="0.6117557700268181" width="1" x="17" y="0.38824422997318186"/><rect fill="oklch(55.3% 0.195 38.402)" height="0.6699366702320987" width="1" x="18" y="0.3300633297679013"/><rect fill="oklch(55.3% 0.195 38.402)" height="0.7651496048311881" width="1" x="19" y="0.2348503951688119"/><rect fill="oklch(55.3% 0.195 38.402)" height="0.6498619790841066" width="1" x="20" y="0.3501380209158934"/><rect fill="oklch(55.3% 0.195 38.402)" height="0.7641623178699686" width="1" x="21" y="0.23583768213003142"/><rect fill="oklch(55.3% 0.195 38.402)" height="0.9435956757178257" width="1" x="22" y="0.056404324282174345"/><rect fill="oklch(55.3% 0.195 38.402)" height="0.700071000632081" width="1" x="23" y="0.29992899936791895"/><rect fill="oklch(55.3% 0.195 38.402)" height="0.589320962564817" width="1" x="24" y="0.41067903743518297"/><rect fill="oklch(55.3% 0.195 38.402)" height="0.8684994872148185" width="1" x="25" y="0.1315005127851815"/><rect fill="oklch(55.3% 0.195 38.402)" height="0.7493179918199698" width="1" x="26" y="0.25068200818003017"/><rect fill="oklch(55.3% 0.195 38.402)" height="0.7766494343548854" width="1" x="27" y="0.22335056564511457"/><rect fill="oklch(55.3% 0.195 38.402)" height="0.8473300451112566" width="1" x="28" y="0.15266995488874335"/><rect fill="oklch(55.3% 0.195 38.402)" height="0.6357567140774413" width="1" x="29" y="0.3642432859225587"/><rect fill="oklch(55.3% 0.195 38.402)" height="0.6209771961994371" width="1" x="30" y="0.37902280380056286"/><rect fill="oklch(55.3% 0.195 38.402)" height="0.7536506721627629" width="1" x="31" y="0.24634932783723706"/><rect fill="oklch(55.3% 0.195 38.402)" height="0.7489455928051295" width="1" x="32" y="0.2510544071948705"/><rect fill="oklch(55.3% 0.195 38.402)" height="0.6552481613649479" width="1" x="33" y="0.3447518386350521"/><rect fill="oklch(55.3% 0.195 38.402)" height="0.7718479994390754" width="1" x="34" y="0.22815200056092455"/><rect fill="oklch(55.3% 0.195 38.402)" height="0.7610731387296994" width="1" x="35" y="0.2389268612703006"/><rect fill="oklch(55.3% 0.195 38.402)" height="0.819994775943365" width="1" x="36" y="0.180005224056635"/><rect fill="oklch(55.3% 0.195 38.402)" height="0.8690879499463396" width="1" x="37" y="0.13091205005366036"/><rect fill="oklch(55.3% 0.195 38.402)" height="0.8479024872499772" width="1" x="38" y="0.1520975127500228"/><rect fill="oklch(55.3% 0.195 38.402)" height="0.670320259507357" width="1" x="39" y="0.32967974049264304"/><rect fill="oklch(55.3% 0.195 38.402)" height="0.8458759928586541" width="1" x="40" y="0.1541240071413459"/><rect fill="oklch(55.3% 0.195 38.402)" height="0.8921542892093789" width="1" x="41" y="0.10784571079062111"/><rect fill="oklch(55.3% 0.195 38.402)" height="0.6792269163697312" width="1" x="42" y="0.3207730836302688"/><rect fill="oklch(55.3% 0.195 38.402)" height="0.6958708727399672" width="1" x="43" y="0.3041291272600328"/><rect fill="oklch(55.3% 0.195 38.402)" height="0.9405578094815897" width="1" x="44" y="0.059442190518410265"/><rect fill="oklch(55.3% 0.195 38.402)" height="0.767355207193818" width="1" x="45" y="0.232644792806182"/><rect fill="oklch(55.3% 0.195 38.402)" height="0.6954910247794412" width="1" x="46" y="0.30450897522055875"/><rect fill="oklch(55.3% 0.195 38.402)" height="0.9478451883739689" width="1" x="47" y="0.05215481162603108"/><rect fill="oklch(55.3% 0.195 38.402)" height="0.7120297983800414" width="1" x="48" y="0.28797020161995857"/><rect fill="oklch(55.3% 0.195 38.402)" height="0.7818937806264435" width="1" x="49" y="0.21810621937355645"/><rect fill="oklch(55.3% 0.195 38.402)" height="0.7592190344383191" width="1" x="50" y="0.24078096556168094"/><rect fill="oklch(55.3% 0.195 38.402)" height="0.6196373788910972" width="1" x="51" y="0.38036262110890284"/><rect fill="oklch(55.3% 0.195 38.402)" height="0.470430473546522" width="1" x="52" y="0.529569526453478"/><rect fill="oklch(55.3% 0.195 38.402)" height="0.5369216943808606" width="1" x="53" y="0.46307830561913943"/><rect fill="oklch(55.3% 0.195 38.402)" height="0.5390968818205294" width="1" x="54" y="0.4609031181794706"/><rect fill="oklch(55.3% 0.195 38.402)" height="0.6329870174662238" width="1" x="55" y="0.36701298253377623"/><rect fill="oklch(55.3% 0.195 38.402)" height="0.612332338464176" width="1" x="56" y="0.387667661535824"/><rect fill="oklch(55.3% 0.195 38.402)" height="0.5318280557339627" width="1" x="57" y="0.46817194426603725"/><rect fill="oklch(55.3% 0.195 38.402)" height="0.6417663781630302" width="1" x="58" y="0.35823362183696983"/><rect fill="oklch(55.3% 0.195 38.402)" height="0.5886363960795579" width="1" x="59" y="0.41136360392044213"/><rect fill="oklch(55.3% 0.195 38.402)" height="0.5040568562931018" width="1" x="60" y="0.4959431437068982"/><rect fill="oklch(55.3% 0.195 38.402)" height="0.5391344672798868" width="1" x="61" y="0.4608655327201132"/><rect fill="oklch(55.3% 0.195 38.402)" height="0.5914798658418804" width="1" x="62" y="0.4085201341581196"/><rect fill="oklch(55.3% 0.195 38.402)" height="0.6090423957288369" width="1" x="63" y="0.3909576042711631"/><rect fill="oklch(55.3% 0.195 38.402)" height="0.5727285965388328" width="1" x="64" y="0.4272714034611672"/><rect fill="oklch(55.3% 0.195 38.402)" height="0.6103102485810304" width="1" x="65" y="0.38968975141896955"/><rect fill="oklch(55.3% 0.195 38.402)" height="0.6245291790332805" width="1" x="66" y="0.37547082096671947"/><rect fill="oklch(55.3% 0.195 38.402)" height="0.5515039267383447" width="1" x="67" y="0.4484960732616553"/><rect fill="oklch(55.3% 0.195 38.402)" height="0.6651199885574461" width="1" x="68" y="0.33488001144255386"/><rect fill="oklch(55.3% 0.195 38.402)" height="0.5805816323193942" width="1" x="69" y="0.4194183676806058"/><rect fill="oklch(55.3% 0.195 38.402)" height="0.8541466073962228" width="1" x="70" y="0.14585339260377717"/><rect fill="oklch(55.3% 0.195 38.402)" height="0.7193991176466648" width="1" x="71" y="0.28060088235333525"/><rect fill="oklch(55.3% 0.195 38.402)" height="0.9587075073473222" width="1" x="72" y="0.04129249265267776"/><rect fill="oklch(55.3% 0.195 38.402)" height="0.7574808304809235" width="1" x="73" y="0.24251916951907648"/><rect fill="oklch(55.3% 0.195 38.402)" height="0.6666047568131549" width="1" x="74" y="0.3333952431868451"/><rect fill="oklch(55.3% 0.195 38.402)" height="0.8579193205200621" width="1" x="75" y="0.14208067947993785"/><rect fill="oklch(55.3% 0.195 38.402)" height="0.8767840513820252" width="1" x="76" y="0.1232159486179748"/><rect fill="oklch(55.3% 0.195 38.402)" height="0.7725966992537502" width="1" x="77" y="0.22740330074624981"/><rect fill="oklch(55.3% 0.195 38.402)" height="0.8712720203313116" width="1" x="78" y="0.12872797966868843"/><rect fill="oklch(55.3% 0.195 38.402)" height="0.9732989196044498" width="1" x="79" y="0.026701080395550192"/><rect fill="oklch(55.3% 0.195 38.402)" height="0.7633500824881151" width="1" x="80" y="0.2366499175118849"/><rect fill="oklch(55.3% 0.195 38.402)" height="0.7734934895727842" width="1" x="81" y="0.2265065104272158"/><rect fill="oklch(55.3% 0.195 38.402)" height="0.9282430353606639" width="1" x="82" y="0.07175696463933612"/><rect fill="oklch(55.3% 0.195 38.402)" height="0.7580717508805439" width="1" x="83" y="0.2419282491194561"/><rect fill="oklch(55.3% 0.195 38.402)" height="0.7401318631934163" width="1" x="84" y="0.2598681368065837"/><rect fill="oklch(55.3% 0.195 38.402)" height="0.9766384209130841" width="1" x="85" y="0.02336157908691594"/><rect fill="oklch(55.3% 0.195 38.402)" height="0.7602138465713456" width="1" x="86" y="0.2397861534286544"/><rect fill="oklch(55.3% 0.195 38.402)" height="0.7775872663832125" width="1" x="87" y="0.22241273361678748"/><rect fill="oklch(55.3% 0.195 38.402)" height="0.943741304180904" width="1" x="88" y="0.05625869581909604"/><rect fill="oklch(55.3% 0.195 38.402)" height="0.8178131481426695" width="1" x="89" y="0.18218685185733052"/><rect fill="oklch(55.3% 0.195 38.402)" height="0.7956968835348079" width="1" x="90" y="0.20430311646519206"/><rect fill="oklch(55.3% 0.195 38.402)" height="0.9025456424657898" width="1" x="91" y="0.09745435753421017"/><rect fill="oklch(55.3% 0.195 38.402)" height="0.8459228733203952" width="1" x="92" y="0.15407712667960483"/><rect fill="oklch(55.3% 0.195 38.402)" height="0.8368960392540952" width="1" x="93" y="0.16310396074590483"/><rect fill="oklch(55.3% 0.195 38.402)" height="0.8786430801509951" width="1" x="94" y="0.12135691984900487"/><rect fill="oklch(55.3% 0.195 38.402)" height="0.08169087531191101" width="1" x="95" y="0.918309124688089"/><rect fill="oklch(55.3% 0.195 38.402)" height="0.007464651175454235" width="1" x="96" y="0.9925353488245457"/><rect fill="oklch(55.3% 0.195 38.402)" height="0.0025354018019695737" width="1" x="97" y="0.9974645981980305"/><rect fill="oklch(55.3% 0.195 38.402)" height="0.0008326751384295812" width="1" x="98" y="0.9991673248615704"/><rect fill="oklch(55.3% 0.195 38.402)" height="0.0002602824101835214" width="1" x="99" y="0.9997397175898165"/></svg>