<svg xmlns="http://www.w3.org/2000/svg" preserveAspectRatio="none" viewBox="0 0 100 1"><rect fill="oklch(55.3% 0.195 38.402)" height="0.20414618975032894" width="1" x="0" y="0.7958538102496711"/><rect fill="oklch(55.3% 0.195 38.402)" height="0.43935471968036993" width="1" x="1" y="0.56064528031963"/><rect fill="oklch(55.3% 0.195 38.402)" height="0.5325072196781943" width="1" x="2" y="0.46749278032180575"/><rect fill="oklch(55.3% 0.195 38.402)" height="0.3830501854722471" width="1" x="3" y="0.6169498145277529"/><rect fill="oklch(55.3% 0.195 38.402)" height="0.4519586662305836" width="1" x="4" y="0.5480413337694163"/><rect fill="oklch(55.3% 0.195 38.402)" height="0.47731159342647045" width="1" x="5" y="0.5226884065735296"/><rect fill="oklch(55.3% 0.195 38.402)" height="0.4735699639291062" width="1" x="6" y="0.5264300360708938"/><rect fill="oklch(55.3% 0.195 38.402)" height="0.6679088745485227" width="1" x="7" y="0.33209112545147734"/><rect fill="oklch(55.3% 0.195 38.402)" height="0.7322826646885165" width="1" x="8" y="0.26771733531148345"/><rect fill="oklch(55.3% 0.195 38.402)" height="0.608936952882015" width="1" x="9" y="0.391063047117985"/><rect fill="oklch(55.3% 0.195 38.402)" height="0.5669843180537717" width="1" x="10" y="0.4330156819462283"/><rect fill="oklch(55.3% 0.195 38.402)" height="0.6801777855728601" width="1" x="11" y="0.3198222144271399"/><rect fill="oklch(55.3% 0.195 38.402)" height="0.678962355732438" width="1" x="12" y="0.321037644267562"/><rect fill="oklch(55.3% 0.195 38.402)" height="0.6528842764058252" width="1" x="13" y="0.34711572359417475"/><rect fill="oklch(55.3% 0.195 38.402)" height="0.7073056156029439" width="1" x="14" y="0.2926943843970561"/><rect fill="oklch(55.3% 0.195 38.402)" height="0.6863489692388014" width="1" x="15" y="0.3136510307611986"/><rect fill="oklch(55.3% 0.195 38.402)" height="0.6208891495441653" width="1" x="16" y="0.3791108504558347"/><rect fill="oklch(55.3% 0.195 38.402)" height="0.6582732522613491" width="1" x="17" y="0.34172674773865086"/><rect fill="oklch(55.3% 0.195 38.402)" height="0.7291762217274201" width="1" x="18" y="0.27082377827257986"/><rect fill="oklch(55.3% 0.195 38.402)" height="0.646306120391958" width="1" x="19" y="0.353693879608042"/><rect fill="oklch(55.3% 0.195 38.402)" height="0.5558271201272977" width="1" x="20" y="0.44417287987270226"/><rect fill="oklch(55.3% 0.195 38.402)" height="0.8093643859931862" width="1" x="21" y="0.19063561400681384"/><rect fill="oklch(55.3% 0.195 38.402)" height="0.7842937695104918" width="1" x="22" y="0.2157062304895082"/><rect fill="oklch(55.3% 0.195 38.402)" height="0.5889521797952563" width="1" x="23" y="0.41104782020474373"/><rect fill="oklch(55.3% 0.195 38.402)" height="0.7598296567613868" width="1" x="24" y="0.2401703432386132"/><rect fill="oklch(55.3% 0.195 38.402)" height="0.833238835729475" width="1" x="25" y="0.166761164270525"/><rect fill="oklch(55.3% 0.195 38.402)" height="0.675452404270396" width="1" x="26" y="0.324547595729604"/><rect fill="oklch(55.3% 0.195 38.402)" height="0.7978651957603715" width="1" x="27" y="0.20213480423962848"/><rect fill="oklch(55.3% 0.195 38.402)" height="0.6904241260271191" width="1" x="28" y="0.3095758739728809"/><rect fill="oklch(55.3% 0.195 38.402)" height="0.7066642105531593" width="1" x="29" y="0.2933357894468407"/><rect fill="oklch(55.3% 0.195 38.402)" height="0.6484130545033132" width="1" x="30" y="0.3515869454966868"/><rect fill="oklch(55.3% 0.195 38.402)" height="0.7214662247486966" width="1" x="31" y="0.2785337752513034"/><rect fill="oklch(55.3% 0.195 38.402)" height="0.6791587796270743" width="1" x="32" y="0.32084122037292573"/><rect fill="oklch(55.3% 0.195 38.402)" height="0.5989221419145381" width="1" x="33" y="0.4010778580854619"/><rect fill="oklch(55.3% 0.195 38.402)" height="0.7125673125372143" width="1" x="34" y="0.2874326874627857"/><rect fill="oklch(55.3% 0.195 38.402)" height="0.7064447080624937" width="1" x="35" y="0.2935552919375063"/><rect fill="oklch(55.3% 0.195 38.402)" height="0.6761848900363686" width="1" x="36" y="0.3238151099636314"/><rect fill="oklch(55.3% 0.195 38.402)" height="0.6123107429079907" width="1" x="37" y="0.3876892570920093"/><rect fill="oklch(55.3% 0.195 38.402)" height="0.692333433308241" width="1" x="38" y="0.30766656669175896"/><rect fill="oklch(55.3% 0.195 38.402)" height="0.6904612593049324" width="1" x="39" y="0.3095387406950676"/><rect fill="oklch(55.3% 0.195 38.402)" height="0.5960470608711637" width="1" x="40" y="0.40395293912883634"/><rect fill="oklch(55.3% 0.195 38.402)" height="0.7911330365017596" width="1" x="41" y="0.2088669634982404"/><rect fill="oklch(55.3% 0.195 38.402)" height="0.8308659387165582" width="1" x="42" y="0.16913406128344177"/><rect fill="oklch(55.3% 0.195 38.402)" height="0.7217052373436107" width="1" x="43" y="0.2782947626563893"/><rect fill="oklch(55.3% 0.195 38.402)" height="0.6775733178617298" width="1" x="44" y="0.3224266821382702"/><rect fill="oklch(55.3% 0.195 38.402)" height="0.844972139095698" width="1" x="45" y="0.15502786090430198"/><rect fill="oklch(55.3% 0.195 38.402)" height="0.7608386377031208" width="1" x="46" y="0.23916136229687923"/><rect fill="oklch(55.3% 0.195 38.402)" height="0.8607327660339782" width="1" x="47" y="0.1392672339660218"/><rect fill="oklch(55.3% 0.195 38.402)" height="0.5932062563446217" width="1" x="48" y="0.40679374365537835"/><rect fill="oklch(55.3% 0.195 38.402)" height="0.7903846424394324" width="1" x="49" y="0.2096153575605676"/><rect fill="oklch(55.3% 0.195 38.402)" height="0.7926593976865814" width="1" x="50" y="0.20734060231341855"/><rect fill="oklch(55.3% 0.195 38.402)" height="0.7326647533539534" width="1" x="51" y="0.2673352466460466"/><rect fill="oklch(55.3% 0.195 38.402)" height="0.6806577945257903" width="1" x="52" y="0.31934220547420966"/><rect fill="oklch(55.3% 0.195 38.402)" height="0.7138307536073673" width="1" x="53" y="0.28616924639263275"/><rect fill="oklch(55.3% 0.195 38.402)" height="0.7135642174735016" width="1" x="54" y="0.2864357825264984"/><rect fill="oklch(55.3% 0.195 38.402)" height="0.767636134511003" width="1" x="55" y="0.232363865488997"/><rect fill="oklch(55.3% 0.195 38.402)" height="1" width="1" x="56" y="0"/><rect fill="oklch(55.3% 0.195 38.402)" height="0.9840423938833094" width="1" x="57" y="0.015957606116690615"/><rect fill="oklch(55.3% 0.195 38.402)" height="0.898006399507946" width="1" x="58" y="0.10199360049205397"/><rect fill="oklch(55.3% 0.195 38.402)" height="0.8453388875606789" width="1" x="59" y="0.15466111243932112"/><rect fill="oklch(55.3% 0.195 38.402)" height="0.9461282413884247" width="1" x="60" y="0.05387175861157534"/><rect fill="oklch(55.3% 0.195 38.402)" height="0.8726832200774722" width="1" x="61" y="0.12731677992252777"/><rect fill="oklch(55.3% 0.195 38.402)" height="0.8256969324187847" width="1" x="62" y="0.17430306758121528"/><rect fill="oklch(55.3% 0.195 38.402)" height="0.8431612605895381" width="1" x="63" y="0.1568387394104619"/><rect fill="oklch(55.3% 0.195 38.402)" height="0.6896526055812606" width="1" x="64" y="0.3103473944187394"/><rect fill="oklch(55.3% 0.195 38.402)" height="0.5841498142528204" width="1" x="65" y="0.4158501857471796"/><rect fill="oklch(55.3% 0.195 38.402)" height="0.6565617534294291" width="1" x="66" y="0.34343824657057087"/><rect fill="oklch(55.3% 0.195 38.402)" height="0.6980036660876517" width="1" x="67" y="0.30199633391234826"/><rect fill="oklch(55.3% 0.195 38.402)" height="0.6712186180676497" width="1" x="68" y="0.3287813819323503"/><rect fill="oklch(55.3% 0.195 38.402)" height="0.6366318203147155" width="1" x="69" y="0.36336817968528445"/><rect fill="oklch(55.3% 0.195 38.402)" height="0.6652244611031348" width="1" x="70" y="0.3347755388968652"/><rect fill="oklch(55.3% 0.195 38.402)" height="0.6846143959772123" width="1" x="71" y="0.3153856040227877"/><rect fill="oklch(55.3% 0.195 38.402)" height="0.5668053001777806" width="1" x="72" y="0.43319469982221936"/><rect fill="oklch(55.3% 0.195 38.402)" height="0.696226454529233" width="1" x="73" y="0.30377354547076696"/><rect fill="oklch(55.3% 0.195 38.402)" height="0.7084685293759844" width="1" x="74" y="0.29153147062401563"/><rect fill="oklch(55.3% 0.195 38.402)" height="0.5927596521177678" width="1" x="75" y="0.4072403478822322"/><rect fill="oklch(55.3% 0.195 38.402)" height="0.5563681980780912" width="1" x="76" y="0.44363180192190876"/><rect fill="oklch(55.3% 0.195 38.402)" height="0.812087164312352" width="1" x="77" y="0.18791283568764805"/><rect fill="oklch(55.3% 0.195 38.402)" height="0.8462482195016557" width="1" x="78" y="0.15375178049834426"/><rect fill="oklch(55.3% 0.195 38.402)" height="0.7100937885216831" width="1" x="79" y="0.28990621147831686"/><rect fill="oklch(55.3% 0.195 38.402)" height="0.7292393407868849" width="1" x="80" y="0.2707606592131151"/><rect fill="oklch(55.3% 0.195 38.402)" height="0.8654758053509988" width="1" x="81" y="0.13452419464900123"/><rect fill="oklch(55.3% 0.195 38.402)" height="0.7393203193379748" width="1" x="82" y="0.2606796806620252"/><rect fill="oklch(55.3% 0.195 38.402)" height="0.7346381524128882" width="1" x="83" y="0.2653618475871118"/><rect fill="oklch(55.3% 0.195 38.402)" height="0.36117223605798393" width="1" x="84" y="0.6388277639420161"/><rect fill="oklch(55.3% 0.195 38.402)" height="0.40324467916162665" width="1" x="85" y="0.5967553208383733"/><rect fill="oklch(55.3% 0.195 38.402)" height="0.4004251062526997" width="1" x="86" y="0.5995748937473002"/><rect fill="oklch(55.3% 0.195 38.402)" height="0.45593290841369316" width="1" x="87" y="0.5440670915863068"/><rect fill="oklch(55.3% 0.195 38.402)" height="0.39838838456781706" width="1" x="88" y="0.6016116154321829"/><rect fill="oklch(55.3% 0.195 38.402)" height="0.4207917424128027" width="1" x="89" y="0.5792082575871973"/><rect fill="oklch(55.3% 0.195 38.402)" height="0.4209045954599624" width="1" x="90" y="0.5790954045400376"/><rect fill="oklch(55.3% 0.195 38.402)" height="0.3658125438574716" width="1" x="91" y="0.6341874561425285"/><rect fill="oklch(55.3% 0.195 38.402)" height="0.41418741511597706" width="1" x="92" y="0.585812584884023"/><rect fill="oklch(55.3% 0.195 38.402)" height="0.4050063897236822" width="1" x="93" y="0.5949936102763178"/><rect fill="oklch(55.3% 0.195 38.402)" height="0.37775130687414527" width="1" x="94" y="0.6222486931258547"/><rect fill="oklch(55.3% 0.195 38.402)" height="0.43473327952172885" width="1" x="95" y="0.5652667204782711"/><rect fill="oklch(55.3% 0.195 38.402)" height="0.4182999755651513" width="1" x="96" y="0.5817000244348487"/><rect fill="oklch(55.3% 0.195 38.402)" height="0.2531500246562846" width="1" x="97" y="0.7468499753437154"/><rect fill="oklch(55.3% 0.195 38.402)" height="0.07032796707803485" width="1" x="98" y="0.9296720329219652"/><rect fill="oklch(55.3% 0.195 38.402)" height="0.012164295916829725" width="1" x="99" y="0.9878357040831702"/></svg>