<svg xmlns="http://www.w3.org/2000/svg" preserveAspectRatio="none" viewBox="0 0 100 1"><rect fill="oklch(55.3% 0.195 38.402)" height="0.11043535087368266" width="1" x="0" y="0.8895646491263174"/><rect fill="oklch(55.3% 0.195 38.402)" height="0.5450318705068778" width="1" x="1" y="0.45496812949312215"/><rect fill="oklch(55.3% 0.195 38.402)" height="0.6028994547355759" width="1" x="2" y="0.39710054526442407"/><rect fill="oklch(55.3% 0.195 38.402)" height="0.5166131554051833" width="1" x="3" y="0.48338684459481673"/><rect fill="oklch(55.3% 0.195 38.402)" height="0.27814541249134356" width="1" x="4" y="0.7218545875086564"/><rect fill="oklch(55.3% 0.195 38.402)" height="0.4476976359146013" width="1" x="5" y="0.5523023640853987"/><rect fill="oklch(55.3% 0.195 38.402)" height="0.5504727798111269" width="1" x="6" y="0.44952722018887314"/><rect fill="oklch(55.3% 0.195 38.402)" height="0.7449297896501735" width="1" x="7" y="0.25507021034982647"/><rect fill="oklch(55.3% 0.195 38.402)" height="0.603252073216984" width="1" x="8" y="0.39674792678301596"/><rect fill="oklch(55.3% 0.195 38.402)" height="0.6745980049164327" width="1" x="9" y="0.32540199508356726"/><rect fill="oklch(55.3% 0.195 38.402)" height="0.6003454583527366" width="1" x="10" y="0.39965454164726344"/><rect fill="oklch(55.3% 0.195 38.402)" height="0.780123186518629" width="1" x="11" y="0.219876813481371"/><rect fill="oklch(55.3% 0.195 38.402)" height="0.3747376466008233" width="1" x="12" y="0.6252623533991767"/><rect fill="oklch(55.3% 0.195 38.402)" height="0.7505821474080977" width="1" x="13" y="0.2494178525919023"/><rect fill="oklch(55.3% 0.195 38.402)" height="0.5501526978581114" width="1" x="14" y="0.4498473021418886"/><rect fill="oklch(55.3% 0.195 38.402)" height="0.6682323315097891" width="1" x="15" y="0.3317676684902109"/><rect fill="oklch(55.3% 0.195 38.402)" height="0.612797053590387" width="1" x="16" y="0.38720294640961295"/><rect fill="oklch(55.3% 0.195 38.402)" height="0.7474349512648151" width="1" x="17" y="0.2525650487351849"/><rect fill="oklch(55.3% 0.195 38.402)" height="0.4069255190161333" width="1" x="18" y="0.5930744809838667"/><rect fill="oklch(55.3% 0.195 38.402)" height="0.6411544973814043" width="1" x="19" y="0.3588455026185957"/><rect fill="oklch(55.3% 0.195 38.402)" height="0.7060780258958725" width="1" x="20" y="0.29392197410412746"/><rect fill="oklch(55.3% 0.195 38.402)" height="0.686885043465756" width="1" x="21" y="0.31311495653424404"/><rect fill="oklch(55.3% 0.195 38.402)" height="0.4068961896339875" width="1" x="22" y="0.5931038103660125"/><rect fill="oklch(55.3% 0.195 38.402)" height="0.8820286568498388" width="1" x="23" y="0.11797134315016122"/><rect fill="oklch(55.3% 0.195 38.402)" height="1" width="1" x="24" y="0"/><rect fill="oklch(55.3% 0.195 38.402)" height="0.8560203907945793" width="1" x="25" y="0.14397960920542074"/><rect fill="oklch(55.3% 0.195 38.402)" height="0.8366845751696211" width="1" x="26" y="0.16331542483037886"/><rect fill="oklch(55.3% 0.195 38.402)" height="0.5860348013154255" width="1" x="27" y="0.4139651986845745"/><rect fill="oklch(55.3% 0.195 38.402)" height="0.9903143253703489" width="1" x="28" y="0.009685674629651086"/><rect fill="oklch(55.3% 0.195 38.402)" height="0.7185862649149053" width="1" x="29" y="0.2814137350850947"/><rect fill="oklch(55.3% 0.195 38.402)" height="0.45805614922626026" width="1" x="30" y="0.5419438507737397"/><rect fill="oklch(55.3% 0.195 38.402)" height="0.4521972635080712" width="1" x="31" y="0.5478027364919288"/><rect fill="oklch(55.3% 0.195 38.402)" height="0.8094777758644808" width="1" x="32" y="0.19052222413551922"/><rect fill="oklch(55.3% 0.195 38.402)" height="0.7499726598044629" width="1" x="33" y="0.2500273401955371"/><rect fill="oklch(55.3% 0.195 38.402)" height="0.6859313526057639" width="1" x="34" y="0.3140686473942361"/><rect fill="oklch(55.3% 0.195 38.402)" height="0.7092902271091353" width="1" x="35" y="0.29070977289086475"/><rect fill="oklch(55.3% 0.195 38.402)" height="0.5276495161889084" width="1" x="36" y="0.47235048381109157"/><rect fill="oklch(55.3% 0.195 38.402)" height="0.6078237097174053" width="1" x="37" y="0.3921762902825947"/><rect fill="oklch(55.3% 0.195 38.402)" height="0.7258943806106273" width="1" x="38" y="0.2741056193893727"/><rect fill="oklch(55.3% 0.195 38.402)" height="0.6742915799696458" width="1" x="39" y="0.32570842003035416"/><rect fill="oklch(55.3% 0.195 38.402)" height="0.7380493716361314" width="1" x="40" y="0.2619506283638686"/><rect fill="oklch(55.3% 0.195 38.402)" height="0.47204540162647307" width="1" x="41" y="0.527954598373527"/><rect fill="oklch(55.3% 0.195 38.402)" height="0.5771563389271458" width="1" x="42" y="0.4228436610728542"/><rect fill="oklch(55.3% 0.195 38.402)" height="0.41544216200668327" width="1" x="43" y="0.5845578379933167"/><rect fill="oklch(55.3% 0.195 38.402)" height="0.5837920454075298" width="1" x="44" y="0.4162079545924702"/><rect fill="oklch(55.3% 0.195 38.402)" height="0.6257839381708389" width="1" x="45" y="0.3742160618291611"/><rect fill="oklch(55.3% 0.195 38.402)" height="0.7136045680016314" width="1" x="46" y="0.2863954319983686"/><rect fill="oklch(55.3% 0.195 38.402)" height="0.6130542979500916" width="1" x="47" y="0.3869457020499084"/><rect fill="oklch(55.3% 0.195 38.402)" height="0.8897759734994201" width="1" x="48" y="0.11022402650057994"/><rect fill="oklch(55.3% 0.195 38.402)" height="0.7263047496798684" width="1" x="49" y="0.27369525032013164"/><rect fill="oklch(55.3% 0.195 38.402)" height="0.8565893827149982" width="1" x="50" y="0.14341061728500182"/><rect fill="oklch(55.3% 0.195 38.402)" height="0.8404746304646791" width="1" x="51" y="0.15952536953532093"/><rect fill="oklch(55.3% 0.195 38.402)" height="0.49467235692624206" width="1" x="52" y="0.5053276430737579"/><rect fill="oklch(55.3% 0.195 38.402)" height="0.7350656256060071" width="1" x="53" y="0.2649343743939929"/><rect fill="oklch(55.3% 0.195 38.402)" height="0.6344707801026984" width="1" x="54" y="0.3655292198973016"/><rect fill="oklch(55.3% 0.195 38.402)" height="0.6247492568280868" width="1" x="55" y="0.3752507431719132"/><rect fill="oklch(55.3% 0.195 38.402)" height="0.8282649385193508" width="1" x="56" y="0.1717350614806492"/><rect fill="oklch(55.3% 0.195 38.402)" height="0.6815856825371708" width="1" x="57" y="0.3184143174628292"/><rect fill="oklch(55.3% 0.195 38.402)" height="0.6515448135360079" width="1" x="58" y="0.3484551864639921"/><rect fill="oklch(55.3% 0.195 38.402)" height="0.46500645560769355" width="1" x="59" y="0.5349935443923064"/><rect fill="oklch(55.3% 0.195 38.402)" height="0.41273023765907296" width="1" x="60" y="0.5872697623409271"/><rect fill="oklch(55.3% 0.195 38.402)" height="0.5379698471761244" width="1" x="61" y="0.4620301528238756"/><rect fill="oklch(55.3% 0.195 38.402)" height="0.4644098270081235" width="1" x="62" y="0.5355901729918765"/><rect fill="oklch(55.3% 0.195 38.402)" height="0.2700235742308912" width="1" x="63" y="0.7299764257691088"/><rect fill="oklch(55.3% 0.195 38.402)" height="0.413456343674187" width="1" x="64" y="0.5865436563258131"/><rect fill="oklch(55.3% 0.195 38.402)" height="0.4340214778841641" width="1" x="65" y="0.5659785221158359"/><rect fill="oklch(55.3% 0.195 38.402)" height="0.5843951842768252" width="1" x="66" y="0.41560481572317476"/><rect fill="oklch(55.3% 0.195 38.402)" height="0.5790424725118716" width="1" x="67" y="0.4209575274881284"/><rect fill="oklch(55.3% 0.195 38.402)" height="0.49798834986088686" width="1" x="68" y="0.5020116501391132"/><rect fill="oklch(55.3% 0.195 38.402)" height="0.45342497397375303" width="1" x="69" y="0.546575026026247"/><rect fill="oklch(55.3% 0.195 38.402)" height="0.8192296583188655" width="1" x="70" y="0.18077034168113448"/><rect fill="oklch(55.3% 0.195 38.402)" height="0.656857000078591" width="1" x="71" y="0.34314299992140895"/><rect fill="oklch(55.3% 0.195 38.402)" height="0.46269304765234937" width="1" x="72" y="0.5373069523476506"/><rect fill="oklch(55.3% 0.195 38.402)" height="0.3827261609643853" width="1" x="73" y="0.6172738390356147"/><rect fill="oklch(55.3% 0.195 38.402)" height="0.5450380434088384" width="1" x="74" y="0.45496195659116156"/><rect fill="oklch(55.3% 0.195 38.402)" height="0.4331040664048339" width="1" x="75" y="0.5668959335951661"/><rect fill="oklch(55.3% 0.195 38.402)" height="0.669300171858807" width="1" x="76" y="0.33069982814119303"/><rect fill="oklch(55.3% 0.195 38.402)" height="0.5233697411324085" width="1" x="77" y="0.47663025886759147"/><rect fill="oklch(55.3% 0.195 38.402)" height="0.8444889229128485" width="1" x="78" y="0.1555110770871515"/><rect fill="oklch(55.3% 0.195 38.402)" height="0.7472663570590878" width="1" x="79" y="0.25273364294091216"/><rect fill="oklch(55.3% 0.195 38.402)" height="0.5335656426467758" width="1" x="80" y="0.46643435735322425"/><rect fill="oklch(55.3% 0.195 38.402)" height="0.6589437670337744" width="1" x="81" y="0.34105623296622556"/><rect fill="oklch(55.3% 0.195 38.402)" height="0.5167359334518814" width="1" x="82" y="0.4832640665481186"/><rect fill="oklch(55.3% 0.195 38.402)" height="0.3401962528390998" width="1" x="83" y="0.6598037471609002"/><rect fill="oklch(55.3% 0.195 38.402)" height="0.6511499119422233" width="1" x="84" y="0.34885008805777673"/><rect fill="oklch(55.3% 0.195 38.402)" height="0.47982868736180206" width="1" x="85" y="0.5201713126381979"/><rect fill="oklch(55.3% 0.195 38.402)" height="0.9191546896706111" width="1" x="86" y="0.08084531032938891"/><rect fill="oklch(55.3% 0.195 38.402)" height="0.7251727566552911" width="1" x="87" y="0.27482724334470887"/><rect fill="oklch(55.3% 0.195 38.402)" height="0.5169376162675057" width="1" x="88" y="0.4830623837324943"/><rect fill="oklch(55.3% 0.195 38.402)" height="0.8576519411140628" width="1" x="89" y="0.14234805888593716"/><rect fill="oklch(55.3% 0.195 38.402)" height="0.7701495358415059" width="1" x="90" y="0.22985046415849408"/><rect fill="oklch(55.3% 0.195 38.402)" height="0.4081799676806088" width="1" x="91" y="0.5918200323193912"/><rect fill="oklch(55.3% 0.195 38.402)" height="0.46064403742500803" width="1" x="92" y="0.539355962574992"/><rect fill="oklch(55.3% 0.195 38.402)" height="0.3633997698875811" width="1" x="93" y="0.636600230112419"/><rect fill="oklch(55.3% 0.195 38.402)" height="0.28418902821319975" width="1" x="94" y="0.7158109717868002"/><rect fill="oklch(55.3% 0.195 38.402)" height="0.5379902614955979" width="1" x="95" y="0.4620097385044021"/><rect fill="oklch(55.3% 0.195 38.402)" height="0.19165638723112866" width="1" x="96" y="0.8083436127688713"/><rect fill="oklch(55.3% 0.195 38.402)" height="0.07242426285977668" width="1" x="97" y="0.9275757371402233"/><rect fill="oklch(55.3% 0.195 38.402)" height="0.007546501969118238" width="1" x="98" y="0.9924534980308818"/><rect fill="oklch(55.3% 0.195 38.402)" height="0.0010261253457037026" width="1" x="99" y="0.9989738746542963"/></svg>