<svg xmlns="http://www.w3.org/2000/svg" preserveAspectRatio="none" viewBox="0 0 100 1"><rect fill="oklch(55.3% 0.195 38.402)" height="0.09034701321001219" width="1" x="0" y="0.9096529867899878"/><rect fill="oklch(55.3% 0.195 38.402)" height="0.127099583195285" width="1" x="1" y="0.872900416804715"/><rect fill="oklch(55.3% 0.195 38.402)" height="0.11907047989572735" width="1" x="2" y="0.8809295201042726"/><rect fill="oklch(55.3% 0.195 38.402)" height="0.13209566433220285" width="1" x="3" y="0.8679043356677971"/><rect fill="oklch(55.3% 0.195 38.402)" height="0.13783585652341845" width="1" x="4" y="0.8621641434765815"/><rect fill="oklch(55.3% 0.195 38.402)" height="0.14383052854677023" width="1" x="5" y="0.8561694714532297"/><rect fill="oklch(55.3% 0.195 38.402)" height="0.14234883237464108" width="1" x="6" y="0.8576511676253589"/><rect fill="oklch(55.3% 0.195 38.402)" height="0.1375467877161895" width="1" x="7" y="0.8624532122838104"/><rect fill="oklch(55.3% 0.195 38.402)" height="0.3146711989693036" width="1" x="8" y="0.6853288010306964"/><rect fill="oklch(55.3% 0.195 38.402)" height="0.3766391584949472" width="1" x="9" y="0.6233608415050528"/><rect fill="oklch(55.3% 0.195 38.402)" height="0.3230324681513699" width="1" x="10" y="0.6769675318486301"/><rect fill="oklch(55.3% 0.195 38.402)" height="0.33950333065432553" width="1" x="11" y="0.6604966693456744"/><rect fill="oklch(55.3% 0.195 38.402)" height="0.2680928205200828" width="1" x="12" y="0.7319071794799172"/><rect fill="oklch(55.3% 0.195 38.402)" height="0.35774505815126223" width="1" x="13" y="0.6422549418487378"/><rect fill="oklch(55.3% 0.195 38.402)" height="0.3177211304100974" width="1" x="14" y="0.6822788695899026"/><rect fill="oklch(55.3% 0.195 38.402)" height="0.4329257916500896" width="1" x="15" y="0.5670742083499104"/><rect fill="oklch(55.3% 0.195 38.402)" height="0.5601426615553597" width="1" x="16" y="0.43985733844464026"/><rect fill="oklch(55.3% 0.195 38.402)" height="0.5660448531323443" width="1" x="17" y="0.4339551468676557"/><rect fill="oklch(55.3% 0.195 38.402)" height="0.5108719259902194" width="1" x="18" y="0.48912807400978064"/><rect fill="oklch(55.3% 0.195 38.402)" height="0.5502200166826114" width="1" x="19" y="0.44977998331738855"/><rect fill="oklch(55.3% 0.195 38.402)" height="0.7471533870507416" width="1" x="20" y="0.25284661294925836"/><rect fill="oklch(55.3% 0.195 38.402)" height="0.7217061941396148" width="1" x="21" y="0.2782938058603852"/><rect fill="oklch(55.3% 0.195 38.402)" height="0.6584119574515049" width="1" x="22" y="0.34158804254849506"/><rect fill="oklch(55.3% 0.195 38.402)" height="1" width="1" x="23" y="0"/><rect fill="oklch(55.3% 0.195 38.402)" height="0.6909530423584967" width="1" x="24" y="0.30904695764150325"/><rect fill="oklch(55.3% 0.195 38.402)" height="0.6790943834870323" width="1" x="25" y="0.3209056165129677"/><rect fill="oklch(55.3% 0.195 38.402)" height="0.5573274991092831" width="1" x="26" y="0.44267250089071686"/><rect fill="oklch(55.3% 0.195 38.402)" height="0.5784224483352294" width="1" x="27" y="0.4215775516647706"/><rect fill="oklch(55.3% 0.195 38.402)" height="0.8941750670763208" width="1" x="28" y="0.10582493292367923"/><rect fill="oklch(55.3% 0.195 38.402)" height="0.6155201818975957" width="1" x="29" y="0.3844798181024043"/><rect fill="oklch(55.3% 0.195 38.402)" height="0.7027022872186245" width="1" x="30" y="0.2972977127813755"/><rect fill="oklch(55.3% 0.195 38.402)" height="0.9518053497800205" width="1" x="31" y="0.048194650219979485"/><rect fill="oklch(55.3% 0.195 38.402)" height="0.5246700966374217" width="1" x="32" y="0.4753299033625783"/><rect fill="oklch(55.3% 0.195 38.402)" height="0.8290112689392299" width="1" x="33" y="0.17098873106077006"/><rect fill="oklch(55.3% 0.195 38.402)" height="0.5572858693609667" width="1" x="34" y="0.4427141306390333"/><rect fill="oklch(55.3% 0.195 38.402)" height="0.5518226172728066" width="1" x="35" y="0.44817738272719343"/><rect fill="oklch(55.3% 0.195 38.402)" height="0.5335223893221784" width="1" x="36" y="0.46647761067782156"/><rect fill="oklch(55.3% 0.195 38.402)" height="0.5891006155090394" width="1" x="37" y="0.41089938449096064"/><rect fill="oklch(55.3% 0.195 38.402)" height="0.7419515148637069" width="1" x="38" y="0.2580484851362931"/><rect fill="oklch(55.3% 0.195 38.402)" height="0.8926343100391545" width="1" x="39" y="0.1073656899608455"/><rect fill="oklch(55.3% 0.195 38.402)" height="0.5737167509152381" width="1" x="40" y="0.4262832490847619"/><rect fill="oklch(55.3% 0.195 38.402)" height="0.8108353636860494" width="1" x="41" y="0.18916463631395064"/><rect fill="oklch(55.3% 0.195 38.402)" height="0.5476492892114851" width="1" x="42" y="0.45235071078851485"/><rect fill="oklch(55.3% 0.195 38.402)" height="0.5013731177192793" width="1" x="43" y="0.4986268822807207"/><rect fill="oklch(55.3% 0.195 38.402)" height="0.4857063248633627" width="1" x="44" y="0.5142936751366374"/><rect fill="oklch(55.3% 0.195 38.402)" height="0.6017500086720204" width="1" x="45" y="0.39824999132797956"/><rect fill="oklch(55.3% 0.195 38.402)" height="0.6959649012140018" width="1" x="46" y="0.3040350987859982"/><rect fill="oklch(55.3% 0.195 38.402)" height="0.8406713287477425" width="1" x="47" y="0.15932867125225747"/><rect fill="oklch(55.3% 0.195 38.402)" height="0.39170372942222215" width="1" x="48" y="0.6082962705777779"/><rect fill="oklch(55.3% 0.195 38.402)" height="0.35216520164013165" width="1" x="49" y="0.6478347983598683"/><rect fill="oklch(55.3% 0.195 38.402)" height="0.3556122916114132" width="1" x="50" y="0.6443877083885867"/><rect fill="oklch(55.3% 0.195 38.402)" height="0.623218423980758" width="1" x="51" y="0.376781576019242"/><rect fill="oklch(55.3% 0.195 38.402)" height="0.4676284352245359" width="1" x="52" y="0.5323715647754641"/><rect fill="oklch(55.3% 0.195 38.402)" height="0.4471136950603166" width="1" x="53" y="0.5528863049396834"/><rect fill="oklch(55.3% 0.195 38.402)" height="0.38459638523878004" width="1" x="54" y="0.61540361476122"/><rect fill="oklch(55.3% 0.195 38.402)" height="0.5841764716927418" width="1" x="55" y="0.4158235283072582"/><rect fill="oklch(55.3% 0.195 38.402)" height="0.6432891295654258" width="1" x="56" y="0.35671087043457417"/><rect fill="oklch(55.3% 0.195 38.402)" height="0.5894013971775959" width="1" x="57" y="0.4105986028224041"/><rect fill="oklch(55.3% 0.195 38.402)" height="0.6130225006472514" width="1" x="58" y="0.3869774993527486"/><rect fill="oklch(55.3% 0.195 38.402)" height="0.6808320745890919" width="1" x="59" y="0.3191679254109081"/><rect fill="oklch(55.3% 0.195 38.402)" height="0.6235129912007007" width="1" x="60" y="0.3764870087992993"/><rect fill="oklch(55.3% 0.195 38.402)" height="0.6512874152248145" width="1" x="61" y="0.3487125847751855"/><rect fill="oklch(55.3% 0.195 38.402)" height="0.7040712192804023" width="1" x="62" y="0.2959287807195977"/><rect fill="oklch(55.3% 0.195 38.402)" height="0.9239248921865122" width="1" x="63" y="0.07607510781348781"/><rect fill="oklch(55.3% 0.195 38.402)" height="0.5986512822314168" width="1" x="64" y="0.40134871776858316"/><rect fill="oklch(55.3% 0.195 38.402)" height="0.5204580821760015" width="1" x="65" y="0.47954191782399846"/><rect fill="oklch(55.3% 0.195 38.402)" height="0.6389899315227512" width="1" x="66" y="0.3610100684772488"/><rect fill="oklch(55.3% 0.195 38.402)" height="0.6442553643806049" width="1" x="67" y="0.35574463561939507"/><rect fill="oklch(55.3% 0.195 38.402)" height="0.5825886360184501" width="1" x="68" y="0.4174113639815499"/><rect fill="oklch(55.3% 0.195 38.402)" height="0.6730391042602265" width="1" x="69" y="0.3269608957397735"/><rect fill="oklch(55.3% 0.195 38.402)" height="0.7854167900286367" width="1" x="70" y="0.21458320997136326"/><rect fill="oklch(55.3% 0.195 38.402)" height="0.8760546949369942" width="1" x="71" y="0.12394530506300583"/><rect fill="oklch(55.3% 0.195 38.402)" height="0.6721911027289815" width="1" x="72" y="0.3278088972710185"/><rect fill="oklch(55.3% 0.195 38.402)" height="0.6748427924713001" width="1" x="73" y="0.3251572075286999"/><rect fill="oklch(55.3% 0.195 38.402)" height="0.559484592857007" width="1" x="74" y="0.440515407142993"/><rect fill="oklch(55.3% 0.195 38.402)" height="0.5501558921675607" width="1" x="75" y="0.44984410783243933"/><rect fill="oklch(55.3% 0.195 38.402)" height="0.685291668020811" width="1" x="76" y="0.314708331979189"/><rect fill="oklch(55.3% 0.195 38.402)" height="0.7917079670828907" width="1" x="77" y="0.2082920329171093"/><rect fill="oklch(55.3% 0.195 38.402)" height="0.9799734468640106" width="1" x="78" y="0.020026553135989444"/><rect fill="oklch(55.3% 0.195 38.402)" height="0.6769915560101818" width="1" x="79" y="0.3230084439898182"/><rect fill="oklch(55.3% 0.195 38.402)" height="0.519945223831419" width="1" x="80" y="0.48005477616858105"/><rect fill="oklch(55.3% 0.195 38.402)" height="0.4180405357597508" width="1" x="81" y="0.5819594642402492"/><rect fill="oklch(55.3% 0.195 38.402)" height="0.4709254977508711" width="1" x="82" y="0.5290745022491289"/><rect fill="oklch(55.3% 0.195 38.402)" height="0.4492613883045402" width="1" x="83" y="0.5507386116954598"/><rect fill="oklch(55.3% 0.195 38.402)" height="0.48327712827393365" width="1" x="84" y="0.5167228717260663"/><rect fill="oklch(55.3% 0.195 38.402)" height="0.74233942368312" width="1" x="85" y="0.25766057631688"/><rect fill="oklch(55.3% 0.195 38.402)" height="0.8339565671218562" width="1" x="86" y="0.16604343287814383"/><rect fill="oklch(55.3% 0.195 38.402)" height="0.6239100339543688" width="1" x="87" y="0.37608996604563116"/><rect fill="oklch(55.3% 0.195 38.402)" height="0.688696184261575" width="1" x="88" y="0.311303815738425"/><rect fill="oklch(55.3% 0.195 38.402)" height="0.5478232854810215" width="1" x="89" y="0.45217671451897845"/><rect fill="oklch(55.3% 0.195 38.402)" height="0.7725389177400737" width="1" x="90" y="0.22746108225992634"/><rect fill="oklch(55.3% 0.195 38.402)" height="0.6929778637980897" width="1" x="91" y="0.3070221362019103"/><rect fill="oklch(55.3% 0.195 38.402)" height="0.7088199326751462" width="1" x="92" y="0.2911800673248538"/><rect fill="oklch(55.3% 0.195 38.402)" height="0.7959410398623691" width="1" x="93" y="0.20405896013763092"/><rect fill="oklch(55.3% 0.195 38.402)" height="0.7946920959191035" width="1" x="94" y="0.2053079040808965"/><rect fill="oklch(55.3% 0.195 38.402)" height="0.6712159316585737" width="1" x="95" y="0.32878406834142626"/><rect fill="oklch(55.3% 0.195 38.402)" height="0.4230265185858609" width="1" x="96" y="0.5769734814141392"/><rect fill="oklch(55.3% 0.195 38.402)" height="0.05279627004561" width="1" x="97" y="0.94720372995439"/><rect fill="oklch(55.3% 0.195 38.402)" height="0.0022407524307784523" width="1" x="98" y="0.9977592475692215"/><rect fill="oklch(55.3% 0.195 38.402)" height="0.0003941804486599246" width="1" x="99" y="0.9996058195513401"/></svg>