<svg xmlns="http://www.w3.org/2000/svg" preserveAspectRatio="none" viewBox="0 0 100 1"><rect fill="oklch(55.3% 0.195 38.402)" height="0.10314583330886845" width="1" x="0" y="0.8968541666911316"/><rect fill="oklch(55.3% 0.195 38.402)" height="0.3399022301968775" width="1" x="1" y="0.6600977698031225"/><rect fill="oklch(55.3% 0.195 38.402)" height="0.5885383088149009" width="1" x="2" y="0.4114616911850991"/><rect fill="oklch(55.3% 0.195 38.402)" height="0.5107098427251556" width="1" x="3" y="0.4892901572748444"/><rect fill="oklch(55.3% 0.195 38.402)" height="0.5122658442149772" width="1" x="4" y="0.48773415578502277"/><rect fill="oklch(55.3% 0.195 38.402)" height="0.6708700923431784" width="1" x="5" y="0.3291299076568216"/><rect fill="oklch(55.3% 0.195 38.402)" height="0.44016416892130084" width="1" x="6" y="0.5598358310786992"/><rect fill="oklch(55.3% 0.195 38.402)" height="0.3515450538632316" width="1" x="7" y="0.6484549461367684"/><rect fill="oklch(55.3% 0.195 38.402)" height="0.35485488429621964" width="1" x="8" y="0.6451451157037804"/><rect fill="oklch(55.3% 0.195 38.402)" height="0.38216941507535707" width="1" x="9" y="0.6178305849246429"/><rect fill="oklch(55.3% 0.195 38.402)" height="0.5485242829375812" width="1" x="10" y="0.45147571706241885"/><rect fill="oklch(55.3% 0.195 38.402)" height="0.4350616741981043" width="1" x="11" y="0.5649383258018956"/><rect fill="oklch(55.3% 0.195 38.402)" height="0.6356454447021178" width="1" x="12" y="0.3643545552978822"/><rect fill="oklch(55.3% 0.195 38.402)" height="0.40784560655833796" width="1" x="13" y="0.592154393441662"/><rect fill="oklch(55.3% 0.195 38.402)" height="0.49548990368539747" width="1" x="14" y="0.5045100963146025"/><rect fill="oklch(55.3% 0.195 38.402)" height="0.5933126806772725" width="1" x="15" y="0.4066873193227275"/><rect fill="oklch(55.3% 0.195 38.402)" height="0.39574379899323775" width="1" x="16" y="0.6042562010067623"/><rect fill="oklch(55.3% 0.195 38.402)" height="0.32806160856851047" width="1" x="17" y="0.6719383914314896"/><rect fill="oklch(55.3% 0.195 38.402)" height="0.31782495651440346" width="1" x="18" y="0.6821750434855965"/><rect fill="oklch(55.3% 0.195 38.402)" height="0.4724144861592159" width="1" x="19" y="0.5275855138407841"/><rect fill="oklch(55.3% 0.195 38.402)" height="0.5174651166578478" width="1" x="20" y="0.4825348833421522"/><rect fill="oklch(55.3% 0.195 38.402)" height="0.4547197255454523" width="1" x="21" y="0.5452802744545477"/><rect fill="oklch(55.3% 0.195 38.402)" height="0.6778766512587898" width="1" x="22" y="0.3221233487412102"/><rect fill="oklch(55.3% 0.195 38.402)" height="0.40722848232003545" width="1" x="23" y="0.5927715176799646"/><rect fill="oklch(55.3% 0.195 38.402)" height="0.5708944456063275" width="1" x="24" y="0.4291055543936725"/><rect fill="oklch(55.3% 0.195 38.402)" height="0.5264578412339012" width="1" x="25" y="0.47354215876609884"/><rect fill="oklch(55.3% 0.195 38.402)" height="0.3607901398920864" width="1" x="26" y="0.6392098601079136"/><rect fill="oklch(55.3% 0.195 38.402)" height="0.3291565123142808" width="1" x="27" y="0.6708434876857192"/><rect fill="oklch(55.3% 0.195 38.402)" height="0.3065067227878628" width="1" x="28" y="0.6934932772121372"/><rect fill="oklch(55.3% 0.195 38.402)" height="0.4949594817582737" width="1" x="29" y="0.5050405182417264"/><rect fill="oklch(55.3% 0.195 38.402)" height="0.44854836329748154" width="1" x="30" y="0.5514516367025184"/><rect fill="oklch(55.3% 0.195 38.402)" height="0.5803313502532889" width="1" x="31" y="0.41966864974671114"/><rect fill="oklch(55.3% 0.195 38.402)" height="0.5845382473587587" width="1" x="32" y="0.4154617526412413"/><rect fill="oklch(55.3% 0.195 38.402)" height="0.5450198837479089" width="1" x="33" y="0.4549801162520911"/><rect fill="oklch(55.3% 0.195 38.402)" height="0.7150895644584134" width="1" x="34" y="0.28491043554158657"/><rect fill="oklch(55.3% 0.195 38.402)" height="0.5405319397381643" width="1" x="35" y="0.45946806026183573"/><rect fill="oklch(55.3% 0.195 38.402)" height="0.4392886860948305" width="1" x="36" y="0.5607113139051695"/><rect fill="oklch(55.3% 0.195 38.402)" height="0.4260399021803136" width="1" x="37" y="0.5739600978196864"/><rect fill="oklch(55.3% 0.195 38.402)" height="0.39322330755968715" width="1" x="38" y="0.6067766924403128"/><rect fill="oklch(55.3% 0.195 38.402)" height="0.7586091616178134" width="1" x="39" y="0.24139083838218656"/><rect fill="oklch(55.3% 0.195 38.402)" height="0.8326985809995741" width="1" x="40" y="0.16730141900042594"/><rect fill="oklch(55.3% 0.195 38.402)" height="0.818923387666691" width="1" x="41" y="0.18107661233330896"/><rect fill="oklch(55.3% 0.195 38.402)" height="0.7512127757742004" width="1" x="42" y="0.24878722422579957"/><rect fill="oklch(55.3% 0.195 38.402)" height="0.7897687517215342" width="1" x="43" y="0.21023124827846584"/><rect fill="oklch(55.3% 0.195 38.402)" height="0.8879954313341024" width="1" x="44" y="0.11200456866589759"/><rect fill="oklch(55.3% 0.195 38.402)" height="0.7888258394161909" width="1" x="45" y="0.2111741605838091"/><rect fill="oklch(55.3% 0.195 38.402)" height="0.6768661782553262" width="1" x="46" y="0.32313382174467375"/><rect fill="oklch(55.3% 0.195 38.402)" height="0.5796774629299414" width="1" x="47" y="0.4203225370700586"/><rect fill="oklch(55.3% 0.195 38.402)" height="0.7549043725962087" width="1" x="48" y="0.24509562740379132"/><rect fill="oklch(55.3% 0.195 38.402)" height="0.8482184624323343" width="1" x="49" y="0.15178153756766566"/><rect fill="oklch(55.3% 0.195 38.402)" height="0.7992887965543164" width="1" x="50" y="0.2007112034456836"/><rect fill="oklch(55.3% 0.195 38.402)" height="0.7948871752129667" width="1" x="51" y="0.2051128247870333"/><rect fill="oklch(55.3% 0.195 38.402)" height="0.5788704952717124" width="1" x="52" y="0.4211295047282876"/><rect fill="oklch(55.3% 0.195 38.402)" height="0.8191914167341381" width="1" x="53" y="0.1808085832658619"/><rect fill="oklch(55.3% 0.195 38.402)" height="0.7735884632600658" width="1" x="54" y="0.2264115367399342"/><rect fill="oklch(55.3% 0.195 38.402)" height="0.7163433803779269" width="1" x="55" y="0.2836566196220731"/><rect fill="oklch(55.3% 0.195 38.402)" height="0.6949791134069753" width="1" x="56" y="0.30502088659302473"/><rect fill="oklch(55.3% 0.195 38.402)" height="0.6784836883145764" width="1" x="57" y="0.3215163116854236"/><rect fill="oklch(55.3% 0.195 38.402)" height="0.7166086391416542" width="1" x="58" y="0.2833913608583458"/><rect fill="oklch(55.3% 0.195 38.402)" height="0.7782008325816069" width="1" x="59" y="0.22179916741839312"/><rect fill="oklch(55.3% 0.195 38.402)" height="0.686609245310181" width="1" x="60" y="0.31339075468981903"/><rect fill="oklch(55.3% 0.195 38.402)" height="0.8290907152188177" width="1" x="61" y="0.17090928478118228"/><rect fill="oklch(55.3% 0.195 38.402)" height="0.5792051497803473" width="1" x="62" y="0.4207948502196527"/><rect fill="oklch(55.3% 0.195 38.402)" height="0.8638875592660249" width="1" x="63" y="0.1361124407339751"/><rect fill="oklch(55.3% 0.195 38.402)" height="0.7634562265066525" width="1" x="64" y="0.23654377349334754"/><rect fill="oklch(55.3% 0.195 38.402)" height="0.6036001889050489" width="1" x="65" y="0.39639981109495115"/><rect fill="oklch(55.3% 0.195 38.402)" height="0.625490994379699" width="1" x="66" y="0.374509005620301"/><rect fill="oklch(55.3% 0.195 38.402)" height="0.5842375525872082" width="1" x="67" y="0.4157624474127918"/><rect fill="oklch(55.3% 0.195 38.402)" height="0.7614871922784857" width="1" x="68" y="0.23851280772151429"/><rect fill="oklch(55.3% 0.195 38.402)" height="0.767057361856801" width="1" x="69" y="0.23294263814319904"/><rect fill="oklch(55.3% 0.195 38.402)" height="0.7087875626954684" width="1" x="70" y="0.2912124373045316"/><rect fill="oklch(55.3% 0.195 38.402)" height="0.7455607828519567" width="1" x="71" y="0.2544392171480433"/><rect fill="oklch(55.3% 0.195 38.402)" height="0.7343728978079104" width="1" x="72" y="0.2656271021920896"/><rect fill="oklch(55.3% 0.195 38.402)" height="0.8507429099541249" width="1" x="73" y="0.14925709004587506"/><rect fill="oklch(55.3% 0.195 38.402)" height="0.7599171538456144" width="1" x="74" y="0.24008284615438558"/><rect fill="oklch(55.3% 0.195 38.402)" height="0.6550247302444963" width="1" x="75" y="0.34497526975550374"/><rect fill="oklch(55.3% 0.195 38.402)" height="0.5274896527325367" width="1" x="76" y="0.4725103472674633"/><rect fill="oklch(55.3% 0.195 38.402)" height="0.6179665311579404" width="1" x="77" y="0.3820334688420596"/><rect fill="oklch(55.3% 0.195 38.402)" height="0.8276843652162533" width="1" x="78" y="0.17231563478374667"/><rect fill="oklch(55.3% 0.195 38.402)" height="0.7459254523371756" width="1" x="79" y="0.25407454766282445"/><rect fill="oklch(55.3% 0.195 38.402)" height="1" width="1" x="80" y="0"/><rect fill="oklch(55.3% 0.195 38.402)" height="0.9092025214425004" width="1" x="81" y="0.09079747855749964"/><rect fill="oklch(55.3% 0.195 38.402)" height="0.7528859693652886" width="1" x="82" y="0.24711403063471138"/><rect fill="oklch(55.3% 0.195 38.402)" height="0.7060416698083164" width="1" x="83" y="0.2939583301916836"/><rect fill="oklch(55.3% 0.195 38.402)" height="0.4985975092512613" width="1" x="84" y="0.5014024907487387"/><rect fill="oklch(55.3% 0.195 38.402)" height="0.5507073449055144" width="1" x="85" y="0.44929265509448557"/><rect fill="oklch(55.3% 0.195 38.402)" height="0.18870132064484482" width="1" x="86" y="0.8112986793551552"/><rect fill="oklch(55.3% 0.195 38.402)" height="0.07094104258081069" width="1" x="87" y="0.9290589574191893"/><rect fill="oklch(55.3% 0.195 38.402)" height="0.07156779776054908" width="1" x="88" y="0.9284322022394509"/><rect fill="oklch(55.3% 0.195 38.402)" height="0.060192310898794406" width="1" x="89" y="0.9398076891012056"/><rect fill="oklch(55.3% 0.195 38.402)" height="0.06607403235684263" width="1" x="90" y="0.9339259676431574"/><rect fill="oklch(55.3% 0.195 38.402)" height="0.08435016759168262" width="1" x="91" y="0.9156498324083173"/><rect fill="oklch(55.3% 0.195 38.402)" height="0.07023781830709314" width="1" x="92" y="0.9297621816929069"/><rect fill="oklch(55.3% 0.195 38.402)" height="0.010083647001027264" width="1" x="93" y="0.9899163529989727"/><rect fill="oklch(55.3% 0.195 38.402)" height="0.0023459837460987746" width="1" x="94" y="0.9976540162539013"/><rect fill="oklch(55.3% 0.195 38.402)" height="0.00042584777343195697" width="1" x="95" y="0.9995741522265681"/><rect fill="oklch(55.3% 0.195 38.402)" height="0.00011509541925881156" width="1" x="96" y="0.9998849045807412"/><rect fill="oklch(55.3% 0.195 38.402)" height="0.000014433573863401859" width="1" x="97" y="0.9999855664261366"/><rect fill="oklch(55.3% 0.195 38.402)" height="0.0000010155885631623817" width="1" x="98" y="0.9999989844114369"/><rect fill="oklch(55.3% 0.195 38.402)" height="3.6147064428741985e-7" width="1" x="99" y="0.9999996385293557"/></svg>