<svg xmlns="http://www.w3.org/2000/svg" preserveAspectRatio="none" viewBox="0 0 100 1"><rect fill="oklch(55.3% 0.195 38.402)" height="0.7140803135282983" width="1" x="0" y="0.28591968647170174"/><rect fill="oklch(55.3% 0.195 38.402)" height="0.9415699307538431" width="1" x="1" y="0.0584300692461569"/><rect fill="oklch(55.3% 0.195 38.402)" height="0.8206587252840303" width="1" x="2" y="0.17934127471596972"/><rect fill="oklch(55.3% 0.195 38.402)" height="0.9343833503566217" width="1" x="3" y="0.06561664964337832"/><rect fill="oklch(55.3% 0.195 38.402)" height="0.8642523556254988" width="1" x="4" y="0.13574764437450115"/><rect fill="oklch(55.3% 0.195 38.402)" height="0.9923274526226731" width="1" x="5" y="0.0076725473773269215"/><rect fill="oklch(55.3% 0.195 38.402)" height="0.827026015308173" width="1" x="6" y="0.172973984691827"/><rect fill="oklch(55.3% 0.195 38.402)" height="0.8507497519473869" width="1" x="7" y="0.1492502480526131"/><rect fill="oklch(55.3% 0.195 38.402)" height="0.8007158090408018" width="1" x="8" y="0.19928419095919825"/><rect fill="oklch(55.3% 0.195 38.402)" height="0.6592580848705322" width="1" x="9" y="0.34074191512946783"/><rect fill="oklch(55.3% 0.195 38.402)" height="0.6351023469515819" width="1" x="10" y="0.36489765304841815"/><rect fill="oklch(55.3% 0.195 38.402)" height="0.6724503691443237" width="1" x="11" y="0.32754963085567634"/><rect fill="oklch(55.3% 0.195 38.402)" height="0.8471140609327471" width="1" x="12" y="0.1528859390672529"/><rect fill="oklch(55.3% 0.195 38.402)" height="0.8988678630085913" width="1" x="13" y="0.10113213699140866"/><rect fill="oklch(55.3% 0.195 38.402)" height="0.9172966319922223" width="1" x="14" y="0.08270336800777767"/><rect fill="oklch(55.3% 0.195 38.402)" height="0.7909049910069995" width="1" x="15" y="0.2090950089930005"/><rect fill="oklch(55.3% 0.195 38.402)" height="0.8529590491765747" width="1" x="16" y="0.14704095082342528"/><rect fill="oklch(55.3% 0.195 38.402)" height="0.7284059943492459" width="1" x="17" y="0.2715940056507541"/><rect fill="oklch(55.3% 0.195 38.402)" height="0.5892462169360786" width="1" x="18" y="0.4107537830639214"/><rect fill="oklch(55.3% 0.195 38.402)" height="0.7828614914492643" width="1" x="19" y="0.2171385085507357"/><rect fill="oklch(55.3% 0.195 38.402)" height="0.8332044836666262" width="1" x="20" y="0.16679551633337375"/><rect fill="oklch(55.3% 0.195 38.402)" height="0.8577252941229617" width="1" x="21" y="0.14227470587703828"/><rect fill="oklch(55.3% 0.195 38.402)" height="0.8187980282432649" width="1" x="22" y="0.18120197175673514"/><rect fill="oklch(55.3% 0.195 38.402)" height="0.6850959656591628" width="1" x="23" y="0.31490403434083725"/><rect fill="oklch(55.3% 0.195 38.402)" height="0.7771477483172144" width="1" x="24" y="0.22285225168278555"/><rect fill="oklch(55.3% 0.195 38.402)" height="1" width="1" x="25" y="0"/><rect fill="oklch(55.3% 0.195 38.402)" height="0.9110128001226553" width="1" x="26" y="0.08898719987734471"/><rect fill="oklch(55.3% 0.195 38.402)" height="0.9789627538928621" width="1" x="27" y="0.021037246107137864"/><rect fill="oklch(55.3% 0.195 38.402)" height="0.9012534528987429" width="1" x="28" y="0.09874654710125708"/><rect fill="oklch(55.3% 0.195 38.402)" height="0.9228139657166612" width="1" x="29" y="0.07718603428333881"/><rect fill="oklch(55.3% 0.195 38.402)" height="0.8238891879986773" width="1" x="30" y="0.17611081200132273"/><rect fill="oklch(55.3% 0.195 38.402)" height="0.8435550517237379" width="1" x="31" y="0.1564449482762621"/><rect fill="oklch(55.3% 0.195 38.402)" height="0.9015278804404352" width="1" x="32" y="0.09847211955956481"/><rect fill="oklch(55.3% 0.195 38.402)" height="0.6885788577801983" width="1" x="33" y="0.31142114221980166"/><rect fill="oklch(55.3% 0.195 38.402)" height="0.6935818733974614" width="1" x="34" y="0.30641812660253864"/><rect fill="oklch(55.3% 0.195 38.402)" height="0.8108601926612033" width="1" x="35" y="0.18913980733879665"/><rect fill="oklch(55.3% 0.195 38.402)" height="0.896842421159903" width="1" x="36" y="0.10315757884009702"/><rect fill="oklch(55.3% 0.195 38.402)" height="0.8706326783301641" width="1" x="37" y="0.1293673216698359"/><rect fill="oklch(55.3% 0.195 38.402)" height="0.9050322170875684" width="1" x="38" y="0.09496778291243158"/><rect fill="oklch(55.3% 0.195 38.402)" height="0.9420386297556025" width="1" x="39" y="0.057961370244397514"/><rect fill="oklch(55.3% 0.195 38.402)" height="0.994749589525166" width="1" x="40" y="0.005250410474833989"/><rect fill="oklch(55.3% 0.195 38.402)" height="0.6827200566430263" width="1" x="41" y="0.31727994335697374"/><rect fill="oklch(55.3% 0.195 38.402)" height="0.69153431592753" width="1" x="42" y="0.30846568407247"/><rect fill="oklch(55.3% 0.195 38.402)" height="0.6853975248441706" width="1" x="43" y="0.3146024751558294"/><rect fill="oklch(55.3% 0.195 38.402)" height="0.9008743819688758" width="1" x="44" y="0.09912561803112419"/><rect fill="oklch(55.3% 0.195 38.402)" height="0.8572798352021032" width="1" x="45" y="0.14272016479789684"/><rect fill="oklch(55.3% 0.195 38.402)" height="0.8607882308059447" width="1" x="46" y="0.1392117691940553"/><rect fill="oklch(55.3% 0.195 38.402)" height="0.7950901282378725" width="1" x="47" y="0.2049098717621275"/><rect fill="oklch(55.3% 0.195 38.402)" height="0.8110764655131644" width="1" x="48" y="0.18892353448683563"/><rect fill="oklch(55.3% 0.195 38.402)" height="0.8129252711608949" width="1" x="49" y="0.18707472883910514"/><rect fill="oklch(55.3% 0.195 38.402)" height="0.8924879547358118" width="1" x="50" y="0.10751204526418823"/><rect fill="oklch(55.3% 0.195 38.402)" height="0.9244651230213959" width="1" x="51" y="0.07553487697860406"/><rect fill="oklch(55.3% 0.195 38.402)" height="0.8151539988634231" width="1" x="52" y="0.1848460011365769"/><rect fill="oklch(55.3% 0.195 38.402)" height="0.9941709218469068" width="1" x="53" y="0.005829078153093192"/><rect fill="oklch(55.3% 0.195 38.402)" height="0.9174860516359652" width="1" x="54" y="0.0825139483640348"/><rect fill="oklch(55.3% 0.195 38.402)" height="0.8607054528648678" width="1" x="55" y="0.13929454713513223"/><rect fill="oklch(55.3% 0.195 38.402)" height="0.97154166351061" width="1" x="56" y="0.02845833648939"/><rect fill="oklch(55.3% 0.195 38.402)" height="0.83551498228812" width="1" x="57" y="0.16448501771187996"/><rect fill="oklch(55.3% 0.195 38.402)" height="0.6344688962125313" width="1" x="58" y="0.36553110378746867"/><rect fill="oklch(55.3% 0.195 38.402)" height="0.7994207881848481" width="1" x="59" y="0.20057921181515193"/><rect fill="oklch(55.3% 0.195 38.402)" height="0.9581518623231866" width="1" x="60" y="0.04184813767681339"/><rect fill="oklch(55.3% 0.195 38.402)" height="0.8740316031169716" width="1" x="61" y="0.1259683968830284"/><rect fill="oklch(55.3% 0.195 38.402)" height="0.7884253641436932" width="1" x="62" y="0.21157463585630676"/><rect fill="oklch(55.3% 0.195 38.402)" height="0.8728344479978519" width="1" x="63" y="0.12716555200214807"/><rect fill="oklch(55.3% 0.195 38.402)" height="0.811757134180429" width="1" x="64" y="0.18824286581957095"/><rect fill="oklch(55.3% 0.195 38.402)" height="0.8323600720789964" width="1" x="65" y="0.16763992792100357"/><rect fill="oklch(55.3% 0.195 38.402)" height="0.8035108092583512" width="1" x="66" y="0.19648919074164883"/><rect fill="oklch(55.3% 0.195 38.402)" height="0.8136441733146321" width="1" x="67" y="0.18635582668536788"/><rect fill="oklch(55.3% 0.195 38.402)" height="0.7355681330783068" width="1" x="68" y="0.2644318669216932"/><rect fill="oklch(55.3% 0.195 38.402)" height="0.9941404425365535" width="1" x="69" y="0.005859557463446463"/><rect fill="oklch(55.3% 0.195 38.402)" height="0.7923716676642304" width="1" x="70" y="0.2076283323357696"/><rect fill="oklch(55.3% 0.195 38.402)" height="0.9123786607305505" width="1" x="71" y="0.08762133926944948"/><rect fill="oklch(55.3% 0.195 38.402)" height="0.6716228885892453" width="1" x="72" y="0.32837711141075465"/><rect fill="oklch(55.3% 0.195 38.402)" height="0.7643202375531254" width="1" x="73" y="0.2356797624468746"/><rect fill="oklch(55.3% 0.195 38.402)" height="0.6851680727372443" width="1" x="74" y="0.31483192726275566"/><rect fill="oklch(55.3% 0.195 38.402)" height="0.9564727709371794" width="1" x="75" y="0.04352722906282058"/><rect fill="oklch(55.3% 0.195 38.402)" height="0.7127605384661406" width="1" x="76" y="0.2872394615338594"/><rect fill="oklch(55.3% 0.195 38.402)" height="0.9385505075934532" width="1" x="77" y="0.061449492406546846"/><rect fill="oklch(55.3% 0.195 38.402)" height="0.7099274199824647" width="1" x="78" y="0.29007258001753533"/><rect fill="oklch(55.3% 0.195 38.402)" height="0.8319543562919606" width="1" x="79" y="0.16804564370803943"/><rect fill="oklch(55.3% 0.195 38.402)" height="0.7726358706014355" width="1" x="80" y="0.22736412939856454"/><rect fill="oklch(55.3% 0.195 38.402)" height="0.7466987594260035" width="1" x="81" y="0.2533012405739965"/><rect fill="oklch(55.3% 0.195 38.402)" height="0.6762965227811807" width="1" x="82" y="0.3237034772188193"/><rect fill="oklch(55.3% 0.195 38.402)" height="0.7219557973630967" width="1" x="83" y="0.2780442026369033"/><rect fill="oklch(55.3% 0.195 38.402)" height="0.7312277302857727" width="1" x="84" y="0.2687722697142273"/><rect fill="oklch(55.3% 0.195 38.402)" height="0.8617060285685918" width="1" x="85" y="0.1382939714314082"/><rect fill="oklch(55.3% 0.195 38.402)" height="0.77933770202013" width="1" x="86" y="0.22066229797987003"/><rect fill="oklch(55.3% 0.195 38.402)" height="0.9387072040063125" width="1" x="87" y="0.06129279599368753"/><rect fill="oklch(55.3% 0.195 38.402)" height="0.8445754313694391" width="1" x="88" y="0.15542456863056087"/><rect fill="oklch(55.3% 0.195 38.402)" height="0.7574323806705126" width="1" x="89" y="0.24256761932948745"/><rect fill="oklch(55.3% 0.195 38.402)" height="0.5738053495468876" width="1" x="90" y="0.42619465045311244"/><rect fill="oklch(55.3% 0.195 38.402)" height="0.642650622604674" width="1" x="91" y="0.357349377395326"/><rect fill="oklch(55.3% 0.195 38.402)" height="0.6419222716255525" width="1" x="92" y="0.3580777283744475"/><rect fill="oklch(55.3% 0.195 38.402)" height="0.8773358502565317" width="1" x="93" y="0.12266414974346829"/><rect fill="oklch(55.3% 0.195 38.402)" height="0.7678062303392478" width="1" x="94" y="0.23219376966075223"/><rect fill="oklch(55.3% 0.195 38.402)" height="0.7591312710843983" width="1" x="95" y="0.24086872891560174"/><rect fill="oklch(55.3% 0.195 38.402)" height="0.7711163840838651" width="1" x="96" y="0.22888361591613493"/><rect fill="oklch(55.3% 0.195 38.402)" height="0.4694126207584673" width="1" x="97" y="0.5305873792415328"/><rect fill="oklch(55.3% 0.195 38.402)" height="0.0076517833970664575" width="1" x="98" y="0.9923482166029336"/><rect fill="oklch(55.3% 0.195 38.402)" height="0.0001668372951839107" width="1" x="99" y="0.999833162704816"/></svg>