<svg xmlns="http://www.w3.org/2000/svg" preserveAspectRatio="none" viewBox="0 0 100 1"><rect fill="oklch(55.3% 0.195 38.402)" height="0.35963274142586577" width="1" x="0" y="0.6403672585741342"/><rect fill="oklch(55.3% 0.195 38.402)" height="0.36532018596197674" width="1" x="1" y="0.6346798140380232"/><rect fill="oklch(55.3% 0.195 38.402)" height="0.4068134321414679" width="1" x="2" y="0.5931865678585321"/><rect fill="oklch(55.3% 0.195 38.402)" height="0.40567550954823417" width="1" x="3" y="0.5943244904517658"/><rect fill="oklch(55.3% 0.195 38.402)" height="0.44966336715050964" width="1" x="4" y="0.5503366328494903"/><rect fill="oklch(55.3% 0.195 38.402)" height="0.3839173904863892" width="1" x="5" y="0.6160826095136108"/><rect fill="oklch(55.3% 0.195 38.402)" height="0.36929889273966243" width="1" x="6" y="0.6307011072603376"/><rect fill="oklch(55.3% 0.195 38.402)" height="0.39747361903659323" width="1" x="7" y="0.6025263809634067"/><rect fill="oklch(55.3% 0.195 38.402)" height="0.36661123036836984" width="1" x="8" y="0.6333887696316302"/><rect fill="oklch(55.3% 0.195 38.402)" height="0.41890687175414026" width="1" x="9" y="0.5810931282458598"/><rect fill="oklch(55.3% 0.195 38.402)" height="0.4163739760736597" width="1" x="10" y="0.5836260239263402"/><rect fill="oklch(55.3% 0.195 38.402)" height="0.38918369100460926" width="1" x="11" y="0.6108163089953907"/><rect fill="oklch(55.3% 0.195 38.402)" height="0.23850274128132162" width="1" x="12" y="0.7614972587186783"/><rect fill="oklch(55.3% 0.195 38.402)" height="0.7827897282400138" width="1" x="13" y="0.2172102717599862"/><rect fill="oklch(55.3% 0.195 38.402)" height="0.5742688960419237" width="1" x="14" y="0.42573110395807634"/><rect fill="oklch(55.3% 0.195 38.402)" height="0.656808925649754" width="1" x="15" y="0.343191074350246"/><rect fill="oklch(55.3% 0.195 38.402)" height="0.7620771708292483" width="1" x="16" y="0.2379228291707517"/><rect fill="oklch(55.3% 0.195 38.402)" height="0.6201106196389908" width="1" x="17" y="0.37988938036100917"/><rect fill="oklch(55.3% 0.195 38.402)" height="0.6670199762449286" width="1" x="18" y="0.3329800237550714"/><rect fill="oklch(55.3% 0.195 38.402)" height="0.6337725165362174" width="1" x="19" y="0.36622748346378264"/><rect fill="oklch(55.3% 0.195 38.402)" height="0.6308885411436213" width="1" x="20" y="0.36911145885637875"/><rect fill="oklch(55.3% 0.195 38.402)" height="0.7213995415315702" width="1" x="21" y="0.27860045846842985"/><rect fill="oklch(55.3% 0.195 38.402)" height="0.6761651628438892" width="1" x="22" y="0.32383483715611083"/><rect fill="oklch(55.3% 0.195 38.402)" height="0.7099696527679691" width="1" x="23" y="0.2900303472320309"/><rect fill="oklch(55.3% 0.195 38.402)" height="0.7278890864996225" width="1" x="24" y="0.2721109135003775"/><rect fill="oklch(55.3% 0.195 38.402)" height="0.6055737862737621" width="1" x="25" y="0.3944262137262379"/><rect fill="oklch(55.3% 0.195 38.402)" height="0.6424964090060041" width="1" x="26" y="0.35750359099399587"/><rect fill="oklch(55.3% 0.195 38.402)" height="0.6792404827837992" width="1" x="27" y="0.3207595172162008"/><rect fill="oklch(55.3% 0.195 38.402)" height="0.6470547322078719" width="1" x="28" y="0.3529452677921281"/><rect fill="oklch(55.3% 0.195 38.402)" height="0.7000137514954449" width="1" x="29" y="0.29998624850455513"/><rect fill="oklch(55.3% 0.195 38.402)" height="0.6331268963514123" width="1" x="30" y="0.3668731036485877"/><rect fill="oklch(55.3% 0.195 38.402)" height="0.7533303649130865" width="1" x="31" y="0.24666963508691353"/><rect fill="oklch(55.3% 0.195 38.402)" height="0.9035507290053036" width="1" x="32" y="0.09644927099469636"/><rect fill="oklch(55.3% 0.195 38.402)" height="0.6963621803621171" width="1" x="33" y="0.30363781963788294"/><rect fill="oklch(55.3% 0.195 38.402)" height="0.8076054394992375" width="1" x="34" y="0.19239456050076253"/><rect fill="oklch(55.3% 0.195 38.402)" height="0.9435429090207956" width="1" x="35" y="0.05645709097920437"/><rect fill="oklch(55.3% 0.195 38.402)" height="0.5923389892368752" width="1" x="36" y="0.4076610107631248"/><rect fill="oklch(55.3% 0.195 38.402)" height="0.5734499036727037" width="1" x="37" y="0.42655009632729635"/><rect fill="oklch(55.3% 0.195 38.402)" height="0.7889290386466951" width="1" x="38" y="0.21107096135330494"/><rect fill="oklch(55.3% 0.195 38.402)" height="0.6920633713205606" width="1" x="39" y="0.3079366286794394"/><rect fill="oklch(55.3% 0.195 38.402)" height="0.7716559588187214" width="1" x="40" y="0.2283440411812786"/><rect fill="oklch(55.3% 0.195 38.402)" height="0.7619288633703089" width="1" x="41" y="0.23807113662969115"/><rect fill="oklch(55.3% 0.195 38.402)" height="0.7750151556488662" width="1" x="42" y="0.22498484435113375"/><rect fill="oklch(55.3% 0.195 38.402)" height="0.7589169839361154" width="1" x="43" y="0.2410830160638846"/><rect fill="oklch(55.3% 0.195 38.402)" height="0.7360516138256374" width="1" x="44" y="0.26394838617436256"/><rect fill="oklch(55.3% 0.195 38.402)" height="0.7036104856514126" width="1" x="45" y="0.2963895143485874"/><rect fill="oklch(55.3% 0.195 38.402)" height="0.8005664269879552" width="1" x="46" y="0.19943357301204478"/><rect fill="oklch(55.3% 0.195 38.402)" height="0.7614943407268467" width="1" x="47" y="0.23850565927315326"/><rect fill="oklch(55.3% 0.195 38.402)" height="0.6431835700043961" width="1" x="48" y="0.3568164299956039"/><rect fill="oklch(55.3% 0.195 38.402)" height="0.8518116240332919" width="1" x="49" y="0.14818837596670809"/><rect fill="oklch(55.3% 0.195 38.402)" height="0.9501562080274751" width="1" x="50" y="0.049843791972524865"/><rect fill="oklch(55.3% 0.195 38.402)" height="0.7344925570226929" width="1" x="51" y="0.2655074429773071"/><rect fill="oklch(55.3% 0.195 38.402)" height="0.6296612736776565" width="1" x="52" y="0.37033872632234355"/><rect fill="oklch(55.3% 0.195 38.402)" height="0.7568153905466535" width="1" x="53" y="0.24318460945334652"/><rect fill="oklch(55.3% 0.195 38.402)" height="0.7241494605841154" width="1" x="54" y="0.27585053941588455"/><rect fill="oklch(55.3% 0.195 38.402)" height="0.6276020553624422" width="1" x="55" y="0.3723979446375578"/><rect fill="oklch(55.3% 0.195 38.402)" height="0.7349852672660989" width="1" x="56" y="0.2650147327339011"/><rect fill="oklch(55.3% 0.195 38.402)" height="0.8435583658525394" width="1" x="57" y="0.1564416341474606"/><rect fill="oklch(55.3% 0.195 38.402)" height="0.6137026806361953" width="1" x="58" y="0.38629731936380474"/><rect fill="oklch(55.3% 0.195 38.402)" height="0.6748835300645675" width="1" x="59" y="0.32511646993543253"/><rect fill="oklch(55.3% 0.195 38.402)" height="0.9338119714017595" width="1" x="60" y="0.06618802859824047"/><rect fill="oklch(55.3% 0.195 38.402)" height="0.8624719279168224" width="1" x="61" y="0.13752807208317763"/><rect fill="oklch(55.3% 0.195 38.402)" height="0.8932249884531406" width="1" x="62" y="0.10677501154685942"/><rect fill="oklch(55.3% 0.195 38.402)" height="0.899890204405338" width="1" x="63" y="0.10010979559466204"/><rect fill="oklch(55.3% 0.195 38.402)" height="0.7960093801025251" width="1" x="64" y="0.2039906198974749"/><rect fill="oklch(55.3% 0.195 38.402)" height="0.7734830367079282" width="1" x="65" y="0.22651696329207183"/><rect fill="oklch(55.3% 0.195 38.402)" height="0.7477526277825919" width="1" x="66" y="0.2522473722174081"/><rect fill="oklch(55.3% 0.195 38.402)" height="0.8659648927036636" width="1" x="67" y="0.1340351072963364"/><rect fill="oklch(55.3% 0.195 38.402)" height="0.9473688028689383" width="1" x="68" y="0.05263119713106168"/><rect fill="oklch(55.3% 0.195 38.402)" height="0.8214077477548456" width="1" x="69" y="0.1785922522451544"/><rect fill="oklch(55.3% 0.195 38.402)" height="0.7812398654300625" width="1" x="70" y="0.21876013456993748"/><rect fill="oklch(55.3% 0.195 38.402)" height="0.8471051623720423" width="1" x="71" y="0.15289483762795775"/><rect fill="oklch(55.3% 0.195 38.402)" height="0.908986046420217" width="1" x="72" y="0.09101395357978304"/><rect fill="oklch(55.3% 0.195 38.402)" height="0.7668224663516688" width="1" x="73" y="0.23317753364833116"/><rect fill="oklch(55.3% 0.195 38.402)" height="0.9042426991943913" width="1" x="74" y="0.09575730080560874"/><rect fill="oklch(55.3% 0.195 38.402)" height="1" width="1" x="75" y="0"/><rect fill="oklch(55.3% 0.195 38.402)" height="0.8895605493006152" width="1" x="76" y="0.11043945069938477"/><rect fill="oklch(55.3% 0.195 38.402)" height="0.6363538697209092" width="1" x="77" y="0.36364613027909076"/><rect fill="oklch(55.3% 0.195 38.402)" height="0.7455727475953557" width="1" x="78" y="0.25442725240464426"/><rect fill="oklch(55.3% 0.195 38.402)" height="0.9598398465542212" width="1" x="79" y="0.040160153445778835"/><rect fill="oklch(55.3% 0.195 38.402)" height="0.7199066588541085" width="1" x="80" y="0.28009334114589146"/><rect fill="oklch(55.3% 0.195 38.402)" height="0.7625506585952604" width="1" x="81" y="0.2374493414047396"/><rect fill="oklch(55.3% 0.195 38.402)" height="0.7485515095329693" width="1" x="82" y="0.25144849046703066"/><rect fill="oklch(55.3% 0.195 38.402)" height="0.7468312979966578" width="1" x="83" y="0.2531687020033422"/><rect fill="oklch(55.3% 0.195 38.402)" height="0.676382499596076" width="1" x="84" y="0.323617500403924"/><rect fill="oklch(55.3% 0.195 38.402)" height="0.8573671150282984" width="1" x="85" y="0.14263288497170157"/><rect fill="oklch(55.3% 0.195 38.402)" height="0.8906070947645788" width="1" x="86" y="0.10939290523542122"/><rect fill="oklch(55.3% 0.195 38.402)" height="0.9923175931373527" width="1" x="87" y="0.007682406862647317"/><rect fill="oklch(55.3% 0.195 38.402)" height="0.8246693871886828" width="1" x="88" y="0.17533061281131723"/><rect fill="oklch(55.3% 0.195 38.402)" height="0.8922274496849278" width="1" x="89" y="0.10777255031507216"/><rect fill="oklch(55.3% 0.195 38.402)" height="0.8333644783104595" width="1" x="90" y="0.16663552168954054"/><rect fill="oklch(55.3% 0.195 38.402)" height="0.7381552641842516" width="1" x="91" y="0.2618447358157484"/><rect fill="oklch(55.3% 0.195 38.402)" height="0.892737380648707" width="1" x="92" y="0.107262619351293"/><rect fill="oklch(55.3% 0.195 38.402)" height="0.7863066854967432" width="1" x="93" y="0.2136933145032568"/><rect fill="oklch(55.3% 0.195 38.402)" height="0.7433666897638138" width="1" x="94" y="0.2566333102361862"/><rect fill="oklch(55.3% 0.195 38.402)" height="0.9544387978045533" width="1" x="95" y="0.04556120219544668"/><rect fill="oklch(55.3% 0.195 38.402)" height="0.7173717970396143" width="1" x="96" y="0.2826282029603857"/><rect fill="oklch(55.3% 0.195 38.402)" height="0.702664439474475" width="1" x="97" y="0.297335560525525"/><rect fill="oklch(55.3% 0.195 38.402)" height="0.0834841150182134" width="1" x="98" y="0.9165158849817866"/><rect fill="oklch(55.3% 0.195 38.402)" height="0.0010408511637595434" width="1" x="99" y="0.9989591488362405"/></svg>