<svg xmlns="http://www.w3.org/2000/svg" preserveAspectRatio="none" viewBox="0 0 100 1"><rect fill="oklch(55.3% 0.195 38.402)" height="0.4347840020581895" width="1" x="0" y="0.5652159979418105"/><rect fill="oklch(55.3% 0.195 38.402)" height="0.48390092112118965" width="1" x="1" y="0.5160990788788103"/><rect fill="oklch(55.3% 0.195 38.402)" height="0.5683404992062182" width="1" x="2" y="0.4316595007937818"/><rect fill="oklch(55.3% 0.195 38.402)" height="0.40741207941111335" width="1" x="3" y="0.5925879205888867"/><rect fill="oklch(55.3% 0.195 38.402)" height="0.4286652237163286" width="1" x="4" y="0.5713347762836714"/><rect fill="oklch(55.3% 0.195 38.402)" height="0.5085416199060386" width="1" x="5" y="0.49145838009396137"/><rect fill="oklch(55.3% 0.195 38.402)" height="0.4349866516294425" width="1" x="6" y="0.5650133483705575"/><rect fill="oklch(55.3% 0.195 38.402)" height="0.5292984914790412" width="1" x="7" y="0.4707015085209588"/><rect fill="oklch(55.3% 0.195 38.402)" height="0.4408544749152066" width="1" x="8" y="0.5591455250847934"/><rect fill="oklch(55.3% 0.195 38.402)" height="0.42953130558834207" width="1" x="9" y="0.5704686944116579"/><rect fill="oklch(55.3% 0.195 38.402)" height="0.7148203428090775" width="1" x="10" y="0.28517965719092253"/><rect fill="oklch(55.3% 0.195 38.402)" height="0.6032886324023045" width="1" x="11" y="0.39671136759769554"/><rect fill="oklch(55.3% 0.195 38.402)" height="0.726199369060397" width="1" x="12" y="0.27380063093960305"/><rect fill="oklch(55.3% 0.195 38.402)" height="0.5568983312565932" width="1" x="13" y="0.44310166874340684"/><rect fill="oklch(55.3% 0.195 38.402)" height="0.582866306984779" width="1" x="14" y="0.41713369301522096"/><rect fill="oklch(55.3% 0.195 38.402)" height="0.6269764939008432" width="1" x="15" y="0.3730235060991568"/><rect fill="oklch(55.3% 0.195 38.402)" height="0.5784850041248695" width="1" x="16" y="0.4215149958751305"/><rect fill="oklch(55.3% 0.195 38.402)" height="0.6830184165428683" width="1" x="17" y="0.3169815834571317"/><rect fill="oklch(55.3% 0.195 38.402)" height="0.5845118470052868" width="1" x="18" y="0.4154881529947132"/><rect fill="oklch(55.3% 0.195 38.402)" height="0.6282088148386727" width="1" x="19" y="0.37179118516132725"/><rect fill="oklch(55.3% 0.195 38.402)" height="0.6990928285759099" width="1" x="20" y="0.30090717142409007"/><rect fill="oklch(55.3% 0.195 38.402)" height="0.5412312263451493" width="1" x="21" y="0.4587687736548507"/><rect fill="oklch(55.3% 0.195 38.402)" height="0.6151643304174943" width="1" x="22" y="0.3848356695825057"/><rect fill="oklch(55.3% 0.195 38.402)" height="0.5269512548317324" width="1" x="23" y="0.47304874516826756"/><rect fill="oklch(55.3% 0.195 38.402)" height="0.5376442368416544" width="1" x="24" y="0.4623557631583456"/><rect fill="oklch(55.3% 0.195 38.402)" height="0.7817391952072712" width="1" x="25" y="0.2182608047927288"/><rect fill="oklch(55.3% 0.195 38.402)" height="0.5901984502577678" width="1" x="26" y="0.40980154974223215"/><rect fill="oklch(55.3% 0.195 38.402)" height="0.6479364012145394" width="1" x="27" y="0.35206359878546056"/><rect fill="oklch(55.3% 0.195 38.402)" height="0.6247807415558754" width="1" x="28" y="0.3752192584441246"/><rect fill="oklch(55.3% 0.195 38.402)" height="0.579330492433785" width="1" x="29" y="0.420669507566215"/><rect fill="oklch(55.3% 0.195 38.402)" height="0.8001846742240609" width="1" x="30" y="0.19981532577593908"/><rect fill="oklch(55.3% 0.195 38.402)" height="0.6217071352853812" width="1" x="31" y="0.37829286471461876"/><rect fill="oklch(55.3% 0.195 38.402)" height="0.8437079283252683" width="1" x="32" y="0.1562920716747317"/><rect fill="oklch(55.3% 0.195 38.402)" height="0.5664533373017333" width="1" x="33" y="0.4335466626982667"/><rect fill="oklch(55.3% 0.195 38.402)" height="0.5953417603285109" width="1" x="34" y="0.40465823967148906"/><rect fill="oklch(55.3% 0.195 38.402)" height="0.7004666855374675" width="1" x="35" y="0.2995333144625325"/><rect fill="oklch(55.3% 0.195 38.402)" height="0.6029872267849639" width="1" x="36" y="0.39701277321503614"/><rect fill="oklch(55.3% 0.195 38.402)" height="0.7546214416883281" width="1" x="37" y="0.24537855831167188"/><rect fill="oklch(55.3% 0.195 38.402)" height="1" width="1" x="38" y="0"/><rect fill="oklch(55.3% 0.195 38.402)" height="0.8224592534481661" width="1" x="39" y="0.17754074655183394"/><rect fill="oklch(55.3% 0.195 38.402)" height="0.8052420856283791" width="1" x="40" y="0.19475791437162093"/><rect fill="oklch(55.3% 0.195 38.402)" height="0.5857505572431306" width="1" x="41" y="0.41424944275686937"/><rect fill="oklch(55.3% 0.195 38.402)" height="0.9888356163247493" width="1" x="42" y="0.011164383675250744"/><rect fill="oklch(55.3% 0.195 38.402)" height="0.5316943145786511" width="1" x="43" y="0.46830568542134887"/><rect fill="oklch(55.3% 0.195 38.402)" height="0.596084433748765" width="1" x="44" y="0.40391556625123504"/><rect fill="oklch(55.3% 0.195 38.402)" height="0.7493929652719468" width="1" x="45" y="0.25060703472805324"/><rect fill="oklch(55.3% 0.195 38.402)" height="0.5404868811778958" width="1" x="46" y="0.4595131188221042"/><rect fill="oklch(55.3% 0.195 38.402)" height="0.7831220129459769" width="1" x="47" y="0.21687798705402306"/><rect fill="oklch(55.3% 0.195 38.402)" height="0.9539988273232533" width="1" x="48" y="0.04600117267674675"/><rect fill="oklch(55.3% 0.195 38.402)" height="0.8426322438720754" width="1" x="49" y="0.15736775612792464"/><rect fill="oklch(55.3% 0.195 38.402)" height="0.7350128332932423" width="1" x="50" y="0.2649871667067577"/><rect fill="oklch(55.3% 0.195 38.402)" height="0.6075717111275719" width="1" x="51" y="0.3924282888724281"/><rect fill="oklch(55.3% 0.195 38.402)" height="0.9020960521335794" width="1" x="52" y="0.09790394786642065"/><rect fill="oklch(55.3% 0.195 38.402)" height="0.6822047298785004" width="1" x="53" y="0.31779527012149955"/><rect fill="oklch(55.3% 0.195 38.402)" height="0.5452731444197525" width="1" x="54" y="0.4547268555802475"/><rect fill="oklch(55.3% 0.195 38.402)" height="0.756247899646465" width="1" x="55" y="0.243752100353535"/><rect fill="oklch(55.3% 0.195 38.402)" height="0.56081862541915" width="1" x="56" y="0.43918137458085005"/><rect fill="oklch(55.3% 0.195 38.402)" height="0.8130685384913423" width="1" x="57" y="0.1869314615086577"/><rect fill="oklch(55.3% 0.195 38.402)" height="0.5557458416616552" width="1" x="58" y="0.4442541583383448"/><rect fill="oklch(55.3% 0.195 38.402)" height="0.6712313816621914" width="1" x="59" y="0.32876861833780857"/><rect fill="oklch(55.3% 0.195 38.402)" height="0.7456313015479834" width="1" x="60" y="0.2543686984520166"/><rect fill="oklch(55.3% 0.195 38.402)" height="0.6078065151201887" width="1" x="61" y="0.3921934848798113"/><rect fill="oklch(55.3% 0.195 38.402)" height="0.8271440797076314" width="1" x="62" y="0.17285592029236863"/><rect fill="oklch(55.3% 0.195 38.402)" height="0.6348326252294819" width="1" x="63" y="0.3651673747705181"/><rect fill="oklch(55.3% 0.195 38.402)" height="0.6881566675997418" width="1" x="64" y="0.3118433324002582"/><rect fill="oklch(55.3% 0.195 38.402)" height="0.7564097977759412" width="1" x="65" y="0.2435902022240588"/><rect fill="oklch(55.3% 0.195 38.402)" height="0.5166621467045692" width="1" x="66" y="0.4833378532954308"/><rect fill="oklch(55.3% 0.195 38.402)" height="0.7504929428882416" width="1" x="67" y="0.24950705711175836"/><rect fill="oklch(55.3% 0.195 38.402)" height="0.4603104388126914" width="1" x="68" y="0.5396895611873086"/><rect fill="oklch(55.3% 0.195 38.402)" height="0.6549600117013182" width="1" x="69" y="0.34503998829868177"/><rect fill="oklch(55.3% 0.195 38.402)" height="0.4313952029019294" width="1" x="70" y="0.5686047970980705"/><rect fill="oklch(55.3% 0.195 38.402)" height="0.3578028724221269" width="1" x="71" y="0.6421971275778731"/><rect fill="oklch(55.3% 0.195 38.402)" height="0.31492999405866196" width="1" x="72" y="0.685070005941338"/><rect fill="oklch(55.3% 0.195 38.402)" height="0.27327436242724107" width="1" x="73" y="0.7267256375727589"/><rect fill="oklch(55.3% 0.195 38.402)" height="0.3436950859447581" width="1" x="74" y="0.6563049140552419"/><rect fill="oklch(55.3% 0.195 38.402)" height="0.29985182668771704" width="1" x="75" y="0.700148173312283"/><rect fill="oklch(55.3% 0.195 38.402)" height="0.3073683125684" width="1" x="76" y="0.6926316874316"/><rect fill="oklch(55.3% 0.195 38.402)" height="0.2931494215419653" width="1" x="77" y="0.7068505784580347"/><rect fill="oklch(55.3% 0.195 38.402)" height="0.33643957102605465" width="1" x="78" y="0.6635604289739454"/><rect fill="oklch(55.3% 0.195 38.402)" height="0.307479451354707" width="1" x="79" y="0.692520548645293"/><rect fill="oklch(55.3% 0.195 38.402)" height="0.3292983673652188" width="1" x="80" y="0.6707016326347812"/><rect fill="oklch(55.3% 0.195 38.402)" height="0.35381986728770354" width="1" x="81" y="0.6461801327122965"/><rect fill="oklch(55.3% 0.195 38.402)" height="0.3053018763120932" width="1" x="82" y="0.6946981236879068"/><rect fill="oklch(55.3% 0.195 38.402)" height="0.2802807448541348" width="1" x="83" y="0.7197192551458652"/><rect fill="oklch(55.3% 0.195 38.402)" height="0.34355262439320633" width="1" x="84" y="0.6564473756067937"/><rect fill="oklch(55.3% 0.195 38.402)" height="0.28918571847628277" width="1" x="85" y="0.7108142815237173"/><rect fill="oklch(55.3% 0.195 38.402)" height="0.29430515163299587" width="1" x="86" y="0.7056948483670041"/><rect fill="oklch(55.3% 0.195 38.402)" height="0.3143509946947117" width="1" x="87" y="0.6856490053052883"/><rect fill="oklch(55.3% 0.195 38.402)" height="0.2933917456510435" width="1" x="88" y="0.7066082543489565"/><rect fill="oklch(55.3% 0.195 38.402)" height="0.5051442951761949" width="1" x="89" y="0.49485570482380514"/><rect fill="oklch(55.3% 0.195 38.402)" height="0.6188754481226669" width="1" x="90" y="0.3811245518773331"/><rect fill="oklch(55.3% 0.195 38.402)" height="0.03793404807060442" width="1" x="91" y="0.9620659519293956"/><rect fill="oklch(55.3% 0.195 38.402)" height="0.0008680890903860286" width="1" x="92" y="0.999131910909614"/><rect fill="oklch(55.3% 0.195 38.402)" height="0.000016757446217792278" width="1" x="93" y="0.9999832425537822"/><rect fill="oklch(55.3% 0.195 38.402)" height="0.000001941462075689455" width="1" x="94" y="0.9999980585379243"/><rect fill="oklch(55.3% 0.195 38.402)" height="2.835237457530628e-7" width="1" x="95" y="0.9999997164762543"/><rect fill="oklch(55.3% 0.195 38.402)" height="8.522593439785307e-8" width="1" x="96" y="0.9999999147740656"/><rect fill="oklch(55.3% 0.195 38.402)" height="0" width="1" x="97" y="1"/><rect fill="oklch(55.3% 0.195 38.402)" height="0" width="1" x="98" y="1"/><rect fill="oklch(55.3% 0.195 38.402)" height="0" width="1" x="99" y="1"/></svg>