<svg xmlns="http://www.w3.org/2000/svg" preserveAspectRatio="none" viewBox="0 0 100 1"><rect fill="oklch(55.3% 0.195 38.402)" height="0.5682777676363057" width="1" x="0" y="0.43172223236369434"/><rect fill="oklch(55.3% 0.195 38.402)" height="0.5300762845131438" width="1" x="1" y="0.4699237154868562"/><rect fill="oklch(55.3% 0.195 38.402)" height="0.5641468949974628" width="1" x="2" y="0.43585310500253716"/><rect fill="oklch(55.3% 0.195 38.402)" height="0.6309711121123257" width="1" x="3" y="0.3690288878876743"/><rect fill="oklch(55.3% 0.195 38.402)" height="0.641664025434353" width="1" x="4" y="0.35833597456564703"/><rect fill="oklch(55.3% 0.195 38.402)" height="0.6273382598206875" width="1" x="5" y="0.37266174017931253"/><rect fill="oklch(55.3% 0.195 38.402)" height="0.6472263939127785" width="1" x="6" y="0.3527736060872215"/><rect fill="oklch(55.3% 0.195 38.402)" height="0.7268074063828515" width="1" x="7" y="0.27319259361714854"/><rect fill="oklch(55.3% 0.195 38.402)" height="0.6540046559445974" width="1" x="8" y="0.34599534405540255"/><rect fill="oklch(55.3% 0.195 38.402)" height="0.5981509995724907" width="1" x="9" y="0.40184900042750926"/><rect fill="oklch(55.3% 0.195 38.402)" height="0.6523941610197894" width="1" x="10" y="0.3476058389802106"/><rect fill="oklch(55.3% 0.195 38.402)" height="0.6856000122822362" width="1" x="11" y="0.3143999877177638"/><rect fill="oklch(55.3% 0.195 38.402)" height="0.7505416385245679" width="1" x="12" y="0.2494583614754321"/><rect fill="oklch(55.3% 0.195 38.402)" height="0.6436490408667735" width="1" x="13" y="0.35635095913322645"/><rect fill="oklch(55.3% 0.195 38.402)" height="0.6293371792302801" width="1" x="14" y="0.3706628207697199"/><rect fill="oklch(55.3% 0.195 38.402)" height="0.5799019096446082" width="1" x="15" y="0.4200980903553918"/><rect fill="oklch(55.3% 0.195 38.402)" height="0.5897556258576945" width="1" x="16" y="0.4102443741423055"/><rect fill="oklch(55.3% 0.195 38.402)" height="0.5566252864732515" width="1" x="17" y="0.4433747135267485"/><rect fill="oklch(55.3% 0.195 38.402)" height="0.631473684067198" width="1" x="18" y="0.36852631593280205"/><rect fill="oklch(55.3% 0.195 38.402)" height="0.6006577253621782" width="1" x="19" y="0.3993422746378218"/><rect fill="oklch(55.3% 0.195 38.402)" height="0.5623702322147994" width="1" x="20" y="0.4376297677852006"/><rect fill="oklch(55.3% 0.195 38.402)" height="0.523967985520664" width="1" x="21" y="0.47603201447933596"/><rect fill="oklch(55.3% 0.195 38.402)" height="0.6822185275896677" width="1" x="22" y="0.3177814724103323"/><rect fill="oklch(55.3% 0.195 38.402)" height="0.5891836801882623" width="1" x="23" y="0.4108163198117377"/><rect fill="oklch(55.3% 0.195 38.402)" height="0.5755699867533367" width="1" x="24" y="0.4244300132466633"/><rect fill="oklch(55.3% 0.195 38.402)" height="0.5871294174638112" width="1" x="25" y="0.4128705825361888"/><rect fill="oklch(55.3% 0.195 38.402)" height="0.5752842666873292" width="1" x="26" y="0.42471573331267076"/><rect fill="oklch(55.3% 0.195 38.402)" height="0.5456558912021897" width="1" x="27" y="0.4543441087978103"/><rect fill="oklch(55.3% 0.195 38.402)" height="0.5654391776066698" width="1" x="28" y="0.43456082239333016"/><rect fill="oklch(55.3% 0.195 38.402)" height="0.7467272958450923" width="1" x="29" y="0.25327270415490766"/><rect fill="oklch(55.3% 0.195 38.402)" height="0.6394325600605757" width="1" x="30" y="0.3605674399394243"/><rect fill="oklch(55.3% 0.195 38.402)" height="0.6008586943753247" width="1" x="31" y="0.3991413056246753"/><rect fill="oklch(55.3% 0.195 38.402)" height="0.559951891863417" width="1" x="32" y="0.440048108136583"/><rect fill="oklch(55.3% 0.195 38.402)" height="0.5312849585021672" width="1" x="33" y="0.46871504149783283"/><rect fill="oklch(55.3% 0.195 38.402)" height="0.5821184298242708" width="1" x="34" y="0.41788157017572924"/><rect fill="oklch(55.3% 0.195 38.402)" height="0.6211463086702138" width="1" x="35" y="0.3788536913297862"/><rect fill="oklch(55.3% 0.195 38.402)" height="0.6635198146113703" width="1" x="36" y="0.33648018538862967"/><rect fill="oklch(55.3% 0.195 38.402)" height="0.7448476120905086" width="1" x="37" y="0.25515238790949135"/><rect fill="oklch(55.3% 0.195 38.402)" height="0.686823040045826" width="1" x="38" y="0.31317695995417405"/><rect fill="oklch(55.3% 0.195 38.402)" height="0.6623169321668583" width="1" x="39" y="0.3376830678331417"/><rect fill="oklch(55.3% 0.195 38.402)" height="0.6235658641920548" width="1" x="40" y="0.37643413580794516"/><rect fill="oklch(55.3% 0.195 38.402)" height="0.6925059228042054" width="1" x="41" y="0.3074940771957946"/><rect fill="oklch(55.3% 0.195 38.402)" height="0.7157358477058243" width="1" x="42" y="0.2842641522941757"/><rect fill="oklch(55.3% 0.195 38.402)" height="0.6803071065036006" width="1" x="43" y="0.3196928934963994"/><rect fill="oklch(55.3% 0.195 38.402)" height="0.5781571688794394" width="1" x="44" y="0.42184283112056065"/><rect fill="oklch(55.3% 0.195 38.402)" height="0.6135194774613016" width="1" x="45" y="0.38648052253869836"/><rect fill="oklch(55.3% 0.195 38.402)" height="0.6116514457242419" width="1" x="46" y="0.3883485542757581"/><rect fill="oklch(55.3% 0.195 38.402)" height="0.5565914151635809" width="1" x="47" y="0.4434085848364191"/><rect fill="oklch(55.3% 0.195 38.402)" height="0.6851980147873533" width="1" x="48" y="0.3148019852126467"/><rect fill="oklch(55.3% 0.195 38.402)" height="0.6119308939168585" width="1" x="49" y="0.3880691060831415"/><rect fill="oklch(55.3% 0.195 38.402)" height="0.6143331049932294" width="1" x="50" y="0.38566689500677065"/><rect fill="oklch(55.3% 0.195 38.402)" height="0.5712619448699129" width="1" x="51" y="0.4287380551300871"/><rect fill="oklch(55.3% 0.195 38.402)" height="0.8045106340216107" width="1" x="52" y="0.19548936597838928"/><rect fill="oklch(55.3% 0.195 38.402)" height="0.5546556761552448" width="1" x="53" y="0.4453443238447552"/><rect fill="oklch(55.3% 0.195 38.402)" height="0.5904429329328859" width="1" x="54" y="0.40955706706711414"/><rect fill="oklch(55.3% 0.195 38.402)" height="0.5742469079224802" width="1" x="55" y="0.42575309207751977"/><rect fill="oklch(55.3% 0.195 38.402)" height="0.6115243901002196" width="1" x="56" y="0.38847560989978036"/><rect fill="oklch(55.3% 0.195 38.402)" height="0.5980958268651815" width="1" x="57" y="0.4019041731348185"/><rect fill="oklch(55.3% 0.195 38.402)" height="0.5943071236876815" width="1" x="58" y="0.40569287631231854"/><rect fill="oklch(55.3% 0.195 38.402)" height="0.6638265398334521" width="1" x="59" y="0.3361734601665479"/><rect fill="oklch(55.3% 0.195 38.402)" height="0.6148461044124301" width="1" x="60" y="0.38515389558756985"/><rect fill="oklch(55.3% 0.195 38.402)" height="0.5594936442608566" width="1" x="61" y="0.44050635573914343"/><rect fill="oklch(55.3% 0.195 38.402)" height="0.5476691651580944" width="1" x="62" y="0.4523308348419056"/><rect fill="oklch(55.3% 0.195 38.402)" height="0.5570125039753926" width="1" x="63" y="0.4429874960246074"/><rect fill="oklch(55.3% 0.195 38.402)" height="0.6726904431132412" width="1" x="64" y="0.3273095568867588"/><rect fill="oklch(55.3% 0.195 38.402)" height="0.6110655394006462" width="1" x="65" y="0.38893446059935377"/><rect fill="oklch(55.3% 0.195 38.402)" height="0.631186346249259" width="1" x="66" y="0.36881365375074104"/><rect fill="oklch(55.3% 0.195 38.402)" height="0.7398685201250076" width="1" x="67" y="0.2601314798749924"/><rect fill="oklch(55.3% 0.195 38.402)" height="0.5797883781667096" width="1" x="68" y="0.4202116218332904"/><rect fill="oklch(55.3% 0.195 38.402)" height="0.8542425260594672" width="1" x="69" y="0.14575747394053284"/><rect fill="oklch(55.3% 0.195 38.402)" height="0.5791248175499606" width="1" x="70" y="0.4208751824500394"/><rect fill="oklch(55.3% 0.195 38.402)" height="0.6913970865331046" width="1" x="71" y="0.3086029134668954"/><rect fill="oklch(55.3% 0.195 38.402)" height="0.7334384957757705" width="1" x="72" y="0.26656150422422953"/><rect fill="oklch(55.3% 0.195 38.402)" height="0.6443174885035439" width="1" x="73" y="0.35568251149645613"/><rect fill="oklch(55.3% 0.195 38.402)" height="0.5880883354204045" width="1" x="74" y="0.4119116645795955"/><rect fill="oklch(55.3% 0.195 38.402)" height="0.6256575920034874" width="1" x="75" y="0.37434240799651264"/><rect fill="oklch(55.3% 0.195 38.402)" height="0.5785036522394416" width="1" x="76" y="0.42149634776055844"/><rect fill="oklch(55.3% 0.195 38.402)" height="0.5867872633126366" width="1" x="77" y="0.41321273668736336"/><rect fill="oklch(55.3% 0.195 38.402)" height="0.9079869342596691" width="1" x="78" y="0.09201306574033086"/><rect fill="oklch(55.3% 0.195 38.402)" height="0.7071000983994338" width="1" x="79" y="0.2928999016005662"/><rect fill="oklch(55.3% 0.195 38.402)" height="0.5686304723929253" width="1" x="80" y="0.4313695276070747"/><rect fill="oklch(55.3% 0.195 38.402)" height="0.6004948803762798" width="1" x="81" y="0.39950511962372015"/><rect fill="oklch(55.3% 0.195 38.402)" height="0.588647692229438" width="1" x="82" y="0.411352307770562"/><rect fill="oklch(55.3% 0.195 38.402)" height="1" width="1" x="83" y="0"/><rect fill="oklch(55.3% 0.195 38.402)" height="0.6095793572867526" width="1" x="84" y="0.3904206427132474"/><rect fill="oklch(55.3% 0.195 38.402)" height="0.5696826910691996" width="1" x="85" y="0.43031730893080045"/><rect fill="oklch(55.3% 0.195 38.402)" height="0.5735218903374312" width="1" x="86" y="0.4264781096625688"/><rect fill="oklch(55.3% 0.195 38.402)" height="0.6790155546637675" width="1" x="87" y="0.3209844453362325"/><rect fill="oklch(55.3% 0.195 38.402)" height="0.6515945504166301" width="1" x="88" y="0.34840544958336994"/><rect fill="oklch(55.3% 0.195 38.402)" height="0.6114355919482791" width="1" x="89" y="0.3885644080517209"/><rect fill="oklch(55.3% 0.195 38.402)" height="0.6521072749307876" width="1" x="90" y="0.3478927250692124"/><rect fill="oklch(55.3% 0.195 38.402)" height="0.5589538727734954" width="1" x="91" y="0.4410461272265046"/><rect fill="oklch(55.3% 0.195 38.402)" height="0.13097101569166533" width="1" x="92" y="0.8690289843083346"/><rect fill="oklch(55.3% 0.195 38.402)" height="0.001368802061990036" width="1" x="93" y="0.9986311979380099"/><rect fill="oklch(55.3% 0.195 38.402)" height="0.0001660381886133652" width="1" x="94" y="0.9998339618113866"/><rect fill="oklch(55.3% 0.195 38.402)" height="0.000013457343546632721" width="1" x="95" y="0.9999865426564534"/><rect fill="oklch(55.3% 0.195 38.402)" height="7.819582433210022e-8" width="1" x="96" y="0.9999999218041756"/><rect fill="oklch(55.3% 0.195 38.402)" height="0" width="1" x="97" y="1"/><rect fill="oklch(55.3% 0.195 38.402)" height="0" width="1" x="98" y="1"/><rect fill="oklch(55.3% 0.195 38.402)" height="0" width="1" x="99" y="1"/></svg>