<svg xmlns="http://www.w3.org/2000/svg" preserveAspectRatio="none" viewBox="0 0 100 1"><rect fill="oklch(55.3% 0.195 38.402)" height="0.053008484123091275" width="1" x="0" y="0.9469915158769088"/><rect fill="oklch(55.3% 0.195 38.402)" height="0.13478069550917668" width="1" x="1" y="0.8652193044908233"/><rect fill="oklch(55.3% 0.195 38.402)" height="0.1512855223203595" width="1" x="2" y="0.8487144776796405"/><rect fill="oklch(55.3% 0.195 38.402)" height="0.14034732259554758" width="1" x="3" y="0.8596526774044524"/><rect fill="oklch(55.3% 0.195 38.402)" height="0.16551800292271246" width="1" x="4" y="0.8344819970772875"/><rect fill="oklch(55.3% 0.195 38.402)" height="0.1810015535537833" width="1" x="5" y="0.8189984464462167"/><rect fill="oklch(55.3% 0.195 38.402)" height="0.2392437608570506" width="1" x="6" y="0.7607562391429494"/><rect fill="oklch(55.3% 0.195 38.402)" height="0.2392957682636922" width="1" x="7" y="0.7607042317363077"/><rect fill="oklch(55.3% 0.195 38.402)" height="0.3007821899935776" width="1" x="8" y="0.6992178100064224"/><rect fill="oklch(55.3% 0.195 38.402)" height="0.36179853838127773" width="1" x="9" y="0.6382014616187223"/><rect fill="oklch(55.3% 0.195 38.402)" height="0.7476088100591417" width="1" x="10" y="0.2523911899408583"/><rect fill="oklch(55.3% 0.195 38.402)" height="0.6471534961601946" width="1" x="11" y="0.3528465038398054"/><rect fill="oklch(55.3% 0.195 38.402)" height="0.5506110637299134" width="1" x="12" y="0.4493889362700866"/><rect fill="oklch(55.3% 0.195 38.402)" height="0.5916268765567696" width="1" x="13" y="0.4083731234432304"/><rect fill="oklch(55.3% 0.195 38.402)" height="0.5200938993957326" width="1" x="14" y="0.4799061006042674"/><rect fill="oklch(55.3% 0.195 38.402)" height="0.5280692939755282" width="1" x="15" y="0.47193070602447185"/><rect fill="oklch(55.3% 0.195 38.402)" height="0.5628155336560459" width="1" x="16" y="0.43718446634395414"/><rect fill="oklch(55.3% 0.195 38.402)" height="0.4607508528059411" width="1" x="17" y="0.5392491471940589"/><rect fill="oklch(55.3% 0.195 38.402)" height="0.5544653925741915" width="1" x="18" y="0.4455346074258085"/><rect fill="oklch(55.3% 0.195 38.402)" height="0.5503930302459716" width="1" x="19" y="0.44960696975402836"/><rect fill="oklch(55.3% 0.195 38.402)" height="0.622744039998998" width="1" x="20" y="0.37725596000100203"/><rect fill="oklch(55.3% 0.195 38.402)" height="0.6011317625925828" width="1" x="21" y="0.39886823740741717"/><rect fill="oklch(55.3% 0.195 38.402)" height="0.5695204786657329" width="1" x="22" y="0.43047952133426715"/><rect fill="oklch(55.3% 0.195 38.402)" height="0.5388835724285005" width="1" x="23" y="0.4611164275714995"/><rect fill="oklch(55.3% 0.195 38.402)" height="0.5977501969329756" width="1" x="24" y="0.4022498030670244"/><rect fill="oklch(55.3% 0.195 38.402)" height="0.5619787343541862" width="1" x="25" y="0.4380212656458138"/><rect fill="oklch(55.3% 0.195 38.402)" height="0.5511893289857225" width="1" x="26" y="0.4488106710142775"/><rect fill="oklch(55.3% 0.195 38.402)" height="0.6285757005746198" width="1" x="27" y="0.37142429942538024"/><rect fill="oklch(55.3% 0.195 38.402)" height="0.7214781118693808" width="1" x="28" y="0.2785218881306192"/><rect fill="oklch(55.3% 0.195 38.402)" height="0.4800018405580904" width="1" x="29" y="0.5199981594419096"/><rect fill="oklch(55.3% 0.195 38.402)" height="0.5401902284624733" width="1" x="30" y="0.45980977153752667"/><rect fill="oklch(55.3% 0.195 38.402)" height="0.5495929615593029" width="1" x="31" y="0.45040703844069707"/><rect fill="oklch(55.3% 0.195 38.402)" height="0.5167545903956653" width="1" x="32" y="0.4832454096043347"/><rect fill="oklch(55.3% 0.195 38.402)" height="0.7186666855664433" width="1" x="33" y="0.2813333144335567"/><rect fill="oklch(55.3% 0.195 38.402)" height="0.6357447876513965" width="1" x="34" y="0.3642552123486035"/><rect fill="oklch(55.3% 0.195 38.402)" height="0.9665277935899848" width="1" x="35" y="0.03347220641001525"/><rect fill="oklch(55.3% 0.195 38.402)" height="0.7224340385422108" width="1" x="36" y="0.2775659614577892"/><rect fill="oklch(55.3% 0.195 38.402)" height="0.5731421694933486" width="1" x="37" y="0.4268578305066514"/><rect fill="oklch(55.3% 0.195 38.402)" height="0.6039390575970273" width="1" x="38" y="0.39606094240297274"/><rect fill="oklch(55.3% 0.195 38.402)" height="0.5464815030097072" width="1" x="39" y="0.4535184969902928"/><rect fill="oklch(55.3% 0.195 38.402)" height="0.699474507729567" width="1" x="40" y="0.300525492270433"/><rect fill="oklch(55.3% 0.195 38.402)" height="0.6156200220840587" width="1" x="41" y="0.38437997791594125"/><rect fill="oklch(55.3% 0.195 38.402)" height="0.5818469347017181" width="1" x="42" y="0.4181530652982819"/><rect fill="oklch(55.3% 0.195 38.402)" height="0.7710619805101496" width="1" x="43" y="0.22893801948985038"/><rect fill="oklch(55.3% 0.195 38.402)" height="0.863247394428204" width="1" x="44" y="0.13675260557179603"/><rect fill="oklch(55.3% 0.195 38.402)" height="0.7503735035754733" width="1" x="45" y="0.24962649642452672"/><rect fill="oklch(55.3% 0.195 38.402)" height="0.7738124583650962" width="1" x="46" y="0.22618754163490384"/><rect fill="oklch(55.3% 0.195 38.402)" height="0.8826752794948781" width="1" x="47" y="0.11732472050512188"/><rect fill="oklch(55.3% 0.195 38.402)" height="0.8004400763336302" width="1" x="48" y="0.19955992366636977"/><rect fill="oklch(55.3% 0.195 38.402)" height="0.7579732026726909" width="1" x="49" y="0.24202679732730914"/><rect fill="oklch(55.3% 0.195 38.402)" height="0.7449223935419261" width="1" x="50" y="0.25507760645807387"/><rect fill="oklch(55.3% 0.195 38.402)" height="0.7762976894684148" width="1" x="51" y="0.22370231053158518"/><rect fill="oklch(55.3% 0.195 38.402)" height="0.7583201981263308" width="1" x="52" y="0.24167980187366922"/><rect fill="oklch(55.3% 0.195 38.402)" height="0.7714024016060294" width="1" x="53" y="0.22859759839397065"/><rect fill="oklch(55.3% 0.195 38.402)" height="0.7431135339772178" width="1" x="54" y="0.2568864660227822"/><rect fill="oklch(55.3% 0.195 38.402)" height="0.7695444141518758" width="1" x="55" y="0.2304555858481242"/><rect fill="oklch(55.3% 0.195 38.402)" height="0.7499503752184148" width="1" x="56" y="0.2500496247815852"/><rect fill="oklch(55.3% 0.195 38.402)" height="0.7692404065272632" width="1" x="57" y="0.23075959347273678"/><rect fill="oklch(55.3% 0.195 38.402)" height="0.8884729443649766" width="1" x="58" y="0.11152705563502341"/><rect fill="oklch(55.3% 0.195 38.402)" height="0.7079711935014197" width="1" x="59" y="0.2920288064985803"/><rect fill="oklch(55.3% 0.195 38.402)" height="0.8480612982651211" width="1" x="60" y="0.1519387017348789"/><rect fill="oklch(55.3% 0.195 38.402)" height="0.7242114855845126" width="1" x="61" y="0.27578851441548735"/><rect fill="oklch(55.3% 0.195 38.402)" height="0.6654479851629056" width="1" x="62" y="0.3345520148370944"/><rect fill="oklch(55.3% 0.195 38.402)" height="0.6943230825643587" width="1" x="63" y="0.3056769174356413"/><rect fill="oklch(55.3% 0.195 38.402)" height="0.8135889029044103" width="1" x="64" y="0.18641109709558967"/><rect fill="oklch(55.3% 0.195 38.402)" height="0.8310504267704264" width="1" x="65" y="0.1689495732295736"/><rect fill="oklch(55.3% 0.195 38.402)" height="0.7143858898052386" width="1" x="66" y="0.28561411019476135"/><rect fill="oklch(55.3% 0.195 38.402)" height="0.6428713493991409" width="1" x="67" y="0.3571286506008591"/><rect fill="oklch(55.3% 0.195 38.402)" height="0.7288184559598122" width="1" x="68" y="0.2711815440401878"/><rect fill="oklch(55.3% 0.195 38.402)" height="0.7241130188435877" width="1" x="69" y="0.2758869811564123"/><rect fill="oklch(55.3% 0.195 38.402)" height="0.7555688793547457" width="1" x="70" y="0.2444311206452543"/><rect fill="oklch(55.3% 0.195 38.402)" height="0.8584176888167966" width="1" x="71" y="0.1415823111832034"/><rect fill="oklch(55.3% 0.195 38.402)" height="0.9816381042817031" width="1" x="72" y="0.01836189571829694"/><rect fill="oklch(55.3% 0.195 38.402)" height="1" width="1" x="73" y="0"/><rect fill="oklch(55.3% 0.195 38.402)" height="0.7651972037836755" width="1" x="74" y="0.2348027962163245"/><rect fill="oklch(55.3% 0.195 38.402)" height="0.7419376843759907" width="1" x="75" y="0.2580623156240093"/><rect fill="oklch(55.3% 0.195 38.402)" height="0.6186999773453882" width="1" x="76" y="0.3813000226546118"/><rect fill="oklch(55.3% 0.195 38.402)" height="0.7414422809181053" width="1" x="77" y="0.25855771908189473"/><rect fill="oklch(55.3% 0.195 38.402)" height="0.8098304751964401" width="1" x="78" y="0.19016952480355986"/><rect fill="oklch(55.3% 0.195 38.402)" height="0.7417886855143934" width="1" x="79" y="0.25821131448560664"/><rect fill="oklch(55.3% 0.195 38.402)" height="0.7962880360680671" width="1" x="80" y="0.20371196393193292"/><rect fill="oklch(55.3% 0.195 38.402)" height="0.9601145760709976" width="1" x="81" y="0.039885423929002406"/><rect fill="oklch(55.3% 0.195 38.402)" height="0.9880306758079777" width="1" x="82" y="0.011969324192022346"/><rect fill="oklch(55.3% 0.195 38.402)" height="0.7957066846631515" width="1" x="83" y="0.20429331533684847"/><rect fill="oklch(55.3% 0.195 38.402)" height="0.8793282817785838" width="1" x="84" y="0.1206717182214162"/><rect fill="oklch(55.3% 0.195 38.402)" height="0.7993039356972496" width="1" x="85" y="0.20069606430275044"/><rect fill="oklch(55.3% 0.195 38.402)" height="0.9085801045330013" width="1" x="86" y="0.09141989546699869"/><rect fill="oklch(55.3% 0.195 38.402)" height="0.7891346372062066" width="1" x="87" y="0.21086536279379342"/><rect fill="oklch(55.3% 0.195 38.402)" height="0.8595035612882833" width="1" x="88" y="0.1404964387117167"/><rect fill="oklch(55.3% 0.195 38.402)" height="0.8134568592482084" width="1" x="89" y="0.18654314075179157"/><rect fill="oklch(55.3% 0.195 38.402)" height="0.893703243957557" width="1" x="90" y="0.10629675604244304"/><rect fill="oklch(55.3% 0.195 38.402)" height="0.9624073705290119" width="1" x="91" y="0.03759262947098807"/><rect fill="oklch(55.3% 0.195 38.402)" height="0.5260316107293197" width="1" x="92" y="0.4739683892706803"/><rect fill="oklch(55.3% 0.195 38.402)" height="0.11254637277019754" width="1" x="93" y="0.8874536272298025"/><rect fill="oklch(55.3% 0.195 38.402)" height="0.04285254492174982" width="1" x="94" y="0.9571474550782502"/><rect fill="oklch(55.3% 0.195 38.402)" height="0.01785146555606712" width="1" x="95" y="0.9821485344439329"/><rect fill="oklch(55.3% 0.195 38.402)" height="0.007939340320596455" width="1" x="96" y="0.9920606596794035"/><rect fill="oklch(55.3% 0.195 38.402)" height="0.003416584041942853" width="1" x="97" y="0.9965834159580571"/><rect fill="oklch(55.3% 0.195 38.402)" height="0.0012484959052144783" width="1" x="98" y="0.9987515040947855"/><rect fill="oklch(55.3% 0.195 38.402)" height="0.0002925440483307138" width="1" x="99" y="0.9997074559516693"/></svg>