<svg xmlns="http://www.w3.org/2000/svg" preserveAspectRatio="none" viewBox="0 0 100 1"><rect fill="oklch(55.3% 0.195 38.402)" height="0.8978596087586519" width="1" x="0" y="0.1021403912413481"/><rect fill="oklch(55.3% 0.195 38.402)" height="0.5229036441685301" width="1" x="1" y="0.4770963558314699"/><rect fill="oklch(55.3% 0.195 38.402)" height="0.5483753138550913" width="1" x="2" y="0.4516246861449087"/><rect fill="oklch(55.3% 0.195 38.402)" height="0.4209503679069789" width="1" x="3" y="0.5790496320930212"/><rect fill="oklch(55.3% 0.195 38.402)" height="0.40556633866428365" width="1" x="4" y="0.5944336613357164"/><rect fill="oklch(55.3% 0.195 38.402)" height="0.4611833390816362" width="1" x="5" y="0.5388166609183638"/><rect fill="oklch(55.3% 0.195 38.402)" height="0.9452601563235392" width="1" x="6" y="0.054739843676460787"/><rect fill="oklch(55.3% 0.195 38.402)" height="0.8642195266806671" width="1" x="7" y="0.13578047331933285"/><rect fill="oklch(55.3% 0.195 38.402)" height="0.6369235120227656" width="1" x="8" y="0.36307648797723435"/><rect fill="oklch(55.3% 0.195 38.402)" height="0.5180498526469834" width="1" x="9" y="0.48195014735301656"/><rect fill="oklch(55.3% 0.195 38.402)" height="0.4108013254947042" width="1" x="10" y="0.5891986745052957"/><rect fill="oklch(55.3% 0.195 38.402)" height="0.3574978886772884" width="1" x="11" y="0.6425021113227116"/><rect fill="oklch(55.3% 0.195 38.402)" height="0.7809257939880123" width="1" x="12" y="0.21907420601198768"/><rect fill="oklch(55.3% 0.195 38.402)" height="0.8050949382821856" width="1" x="13" y="0.1949050617178144"/><rect fill="oklch(55.3% 0.195 38.402)" height="0.6937007988718967" width="1" x="14" y="0.30629920112810327"/><rect fill="oklch(55.3% 0.195 38.402)" height="0.7358289740613203" width="1" x="15" y="0.2641710259386797"/><rect fill="oklch(55.3% 0.195 38.402)" height="0.5380876399433813" width="1" x="16" y="0.46191236005661873"/><rect fill="oklch(55.3% 0.195 38.402)" height="0.5552495497323031" width="1" x="17" y="0.4447504502676969"/><rect fill="oklch(55.3% 0.195 38.402)" height="0.5768439918694064" width="1" x="18" y="0.4231560081305936"/><rect fill="oklch(55.3% 0.195 38.402)" height="0.6736638287856269" width="1" x="19" y="0.3263361712143731"/><rect fill="oklch(55.3% 0.195 38.402)" height="0.3871739539528851" width="1" x="20" y="0.6128260460471149"/><rect fill="oklch(55.3% 0.195 38.402)" height="0.40413014778183554" width="1" x="21" y="0.5958698522181645"/><rect fill="oklch(55.3% 0.195 38.402)" height="0.281514574796587" width="1" x="22" y="0.718485425203413"/><rect fill="oklch(55.3% 0.195 38.402)" height="0.3714881578791499" width="1" x="23" y="0.6285118421208501"/><rect fill="oklch(55.3% 0.195 38.402)" height="0.4752295055295693" width="1" x="24" y="0.5247704944704308"/><rect fill="oklch(55.3% 0.195 38.402)" height="0.9642005844037741" width="1" x="25" y="0.0357994155962259"/><rect fill="oklch(55.3% 0.195 38.402)" height="0.9235755821606246" width="1" x="26" y="0.07642441783937537"/><rect fill="oklch(55.3% 0.195 38.402)" height="0.6551047200317591" width="1" x="27" y="0.3448952799682409"/><rect fill="oklch(55.3% 0.195 38.402)" height="0.7075553025147654" width="1" x="28" y="0.2924446974852346"/><rect fill="oklch(55.3% 0.195 38.402)" height="0.7940020916093398" width="1" x="29" y="0.20599790839066023"/><rect fill="oklch(55.3% 0.195 38.402)" height="0.9735967320869963" width="1" x="30" y="0.026403267913003736"/><rect fill="oklch(55.3% 0.195 38.402)" height="0.7629096695452385" width="1" x="31" y="0.23709033045476147"/><rect fill="oklch(55.3% 0.195 38.402)" height="0.663997301903072" width="1" x="32" y="0.33600269809692795"/><rect fill="oklch(55.3% 0.195 38.402)" height="0.4309060398212151" width="1" x="33" y="0.5690939601787849"/><rect fill="oklch(55.3% 0.195 38.402)" height="0.2840583634264958" width="1" x="34" y="0.7159416365735042"/><rect fill="oklch(55.3% 0.195 38.402)" height="0.3645420127211406" width="1" x="35" y="0.6354579872788594"/><rect fill="oklch(55.3% 0.195 38.402)" height="0.4800976660667389" width="1" x="36" y="0.5199023339332611"/><rect fill="oklch(55.3% 0.195 38.402)" height="0.8206334945983169" width="1" x="37" y="0.17936650540168309"/><rect fill="oklch(55.3% 0.195 38.402)" height="0.5025605487970055" width="1" x="38" y="0.4974394512029945"/><rect fill="oklch(55.3% 0.195 38.402)" height="0.4886279611174132" width="1" x="39" y="0.5113720388825869"/><rect fill="oklch(55.3% 0.195 38.402)" height="0.9220629399730009" width="1" x="40" y="0.07793706002699907"/><rect fill="oklch(55.3% 0.195 38.402)" height="0.6127778400188298" width="1" x="41" y="0.38722215998117016"/><rect fill="oklch(55.3% 0.195 38.402)" height="0.5987088405391074" width="1" x="42" y="0.40129115946089255"/><rect fill="oklch(55.3% 0.195 38.402)" height="0.7923307575956616" width="1" x="43" y="0.20766924240433837"/><rect fill="oklch(55.3% 0.195 38.402)" height="0.6905468888966763" width="1" x="44" y="0.30945311110332374"/><rect fill="oklch(55.3% 0.195 38.402)" height="0.5862644994478062" width="1" x="45" y="0.41373550055219377"/><rect fill="oklch(55.3% 0.195 38.402)" height="0.832991250893284" width="1" x="46" y="0.16700874910671604"/><rect fill="oklch(55.3% 0.195 38.402)" height="0.4816980225009008" width="1" x="47" y="0.5183019774990991"/><rect fill="oklch(55.3% 0.195 38.402)" height="0.7280626108951654" width="1" x="48" y="0.27193738910483456"/><rect fill="oklch(55.3% 0.195 38.402)" height="0.48691274255051326" width="1" x="49" y="0.5130872574494867"/><rect fill="oklch(55.3% 0.195 38.402)" height="1" width="1" x="50" y="0"/><rect fill="oklch(55.3% 0.195 38.402)" height="0.5958274246437703" width="1" x="51" y="0.40417257535622975"/><rect fill="oklch(55.3% 0.195 38.402)" height="0.756928703883812" width="1" x="52" y="0.24307129611618805"/><rect fill="oklch(55.3% 0.195 38.402)" height="0.4661034589629262" width="1" x="53" y="0.5338965410370737"/><rect fill="oklch(55.3% 0.195 38.402)" height="0.4346493524843445" width="1" x="54" y="0.5653506475156556"/><rect fill="oklch(55.3% 0.195 38.402)" height="0.379103129323425" width="1" x="55" y="0.620896870676575"/><rect fill="oklch(55.3% 0.195 38.402)" height="0.8191971053541536" width="1" x="56" y="0.18080289464584642"/><rect fill="oklch(55.3% 0.195 38.402)" height="0.9133353576938005" width="1" x="57" y="0.08666464230619952"/><rect fill="oklch(55.3% 0.195 38.402)" height="0.7150204719038153" width="1" x="58" y="0.28497952809618465"/><rect fill="oklch(55.3% 0.195 38.402)" height="0.8647788082282316" width="1" x="59" y="0.1352211917717684"/><rect fill="oklch(55.3% 0.195 38.402)" height="0.5625548686609766" width="1" x="60" y="0.4374451313390234"/><rect fill="oklch(55.3% 0.195 38.402)" height="0.5107559036524121" width="1" x="61" y="0.4892440963475879"/><rect fill="oklch(55.3% 0.195 38.402)" height="0.6951308069354946" width="1" x="62" y="0.30486919306450544"/><rect fill="oklch(55.3% 0.195 38.402)" height="0.5734805522003674" width="1" x="63" y="0.4265194477996326"/><rect fill="oklch(55.3% 0.195 38.402)" height="0.7419665819053115" width="1" x="64" y="0.2580334180946885"/><rect fill="oklch(55.3% 0.195 38.402)" height="0.5422338907665292" width="1" x="65" y="0.45776610923347083"/><rect fill="oklch(55.3% 0.195 38.402)" height="0.6511248625857804" width="1" x="66" y="0.3488751374142196"/><rect fill="oklch(55.3% 0.195 38.402)" height="0.5265873682712291" width="1" x="67" y="0.4734126317287709"/><rect fill="oklch(55.3% 0.195 38.402)" height="0.6540341258540556" width="1" x="68" y="0.3459658741459444"/><rect fill="oklch(55.3% 0.195 38.402)" height="0.7792346058100966" width="1" x="69" y="0.22076539418990337"/><rect fill="oklch(55.3% 0.195 38.402)" height="0.6086938717170549" width="1" x="70" y="0.3913061282829451"/><rect fill="oklch(55.3% 0.195 38.402)" height="0.9123928107868803" width="1" x="71" y="0.08760718921311972"/><rect fill="oklch(55.3% 0.195 38.402)" height="0.33269687108012586" width="1" x="72" y="0.6673031289198741"/><rect fill="oklch(55.3% 0.195 38.402)" height="0.4521212542622504" width="1" x="73" y="0.5478787457377496"/><rect fill="oklch(55.3% 0.195 38.402)" height="0.44429312497090157" width="1" x="74" y="0.5557068750290984"/><rect fill="oklch(55.3% 0.195 38.402)" height="0.9021218915289285" width="1" x="75" y="0.09787810847107148"/><rect fill="oklch(55.3% 0.195 38.402)" height="0.5826463680307944" width="1" x="76" y="0.4173536319692056"/><rect fill="oklch(55.3% 0.195 38.402)" height="0.7642035083386001" width="1" x="77" y="0.23579649166139993"/><rect fill="oklch(55.3% 0.195 38.402)" height="0.451717445275032" width="1" x="78" y="0.548282554724968"/><rect fill="oklch(55.3% 0.195 38.402)" height="0.44631357420915313" width="1" x="79" y="0.5536864257908469"/><rect fill="oklch(55.3% 0.195 38.402)" height="0.3711437434727019" width="1" x="80" y="0.6288562565272982"/><rect fill="oklch(55.3% 0.195 38.402)" height="0.8673033103304235" width="1" x="81" y="0.13269668966957648"/><rect fill="oklch(55.3% 0.195 38.402)" height="0.9040615303824941" width="1" x="82" y="0.09593846961750585"/><rect fill="oklch(55.3% 0.195 38.402)" height="0.7323927996413214" width="1" x="83" y="0.2676072003586786"/><rect fill="oklch(55.3% 0.195 38.402)" height="0.8522641020350396" width="1" x="84" y="0.14773589796496045"/><rect fill="oklch(55.3% 0.195 38.402)" height="0.5594333091763631" width="1" x="85" y="0.44056669082363686"/><rect fill="oklch(55.3% 0.195 38.402)" height="0.5341219998682669" width="1" x="86" y="0.4658780001317331"/><rect fill="oklch(55.3% 0.195 38.402)" height="0.8069874633843019" width="1" x="87" y="0.19301253661569806"/><rect fill="oklch(55.3% 0.195 38.402)" height="0.5680464853580691" width="1" x="88" y="0.4319535146419309"/><rect fill="oklch(55.3% 0.195 38.402)" height="0.692372385500531" width="1" x="89" y="0.30762761449946896"/><rect fill="oklch(55.3% 0.195 38.402)" height="0.5709436658544871" width="1" x="90" y="0.4290563341455129"/><rect fill="oklch(55.3% 0.195 38.402)" height="0.6527902161587993" width="1" x="91" y="0.3472097838412007"/><rect fill="oklch(55.3% 0.195 38.402)" height="0.5050148417741237" width="1" x="92" y="0.4949851582258763"/><rect fill="oklch(55.3% 0.195 38.402)" height="0.4135808350094427" width="1" x="93" y="0.5864191649905572"/><rect fill="oklch(55.3% 0.195 38.402)" height="0.550887326068654" width="1" x="94" y="0.449112673931346"/><rect fill="oklch(55.3% 0.195 38.402)" height="0.5594488966680535" width="1" x="95" y="0.44055110333194647"/><rect fill="oklch(55.3% 0.195 38.402)" height="0.8870705877024273" width="1" x="96" y="0.1129294122975727"/><rect fill="oklch(55.3% 0.195 38.402)" height="0.2898720534170907" width="1" x="97" y="0.7101279465829093"/><rect fill="oklch(55.3% 0.195 38.402)" height="0.18920941227521756" width="1" x="98" y="0.8107905877247824"/><rect fill="oklch(55.3% 0.195 38.402)" height="0.017952595060718394" width="1" x="99" y="0.9820474049392816"/></svg>