<svg xmlns="http://www.w3.org/2000/svg" preserveAspectRatio="none" viewBox="0 0 100 1"><rect fill="oklch(55.3% 0.195 38.402)" height="0.9095753265432653" width="1" x="0" y="0.09042467345673466"/><rect fill="oklch(55.3% 0.195 38.402)" height="0.9759059206801375" width="1" x="1" y="0.024094079319862516"/><rect fill="oklch(55.3% 0.195 38.402)" height="0.807712523722978" width="1" x="2" y="0.19228747627702203"/><rect fill="oklch(55.3% 0.195 38.402)" height="0.7968014781745778" width="1" x="3" y="0.2031985218254222"/><rect fill="oklch(55.3% 0.195 38.402)" height="0.7248550311529762" width="1" x="4" y="0.2751449688470238"/><rect fill="oklch(55.3% 0.195 38.402)" height="0.7217359328583061" width="1" x="5" y="0.27826406714169394"/><rect fill="oklch(55.3% 0.195 38.402)" height="0.8470472728299443" width="1" x="6" y="0.1529527271700557"/><rect fill="oklch(55.3% 0.195 38.402)" height="0.8205433461432536" width="1" x="7" y="0.17945665385674636"/><rect fill="oklch(55.3% 0.195 38.402)" height="0.7037463058933433" width="1" x="8" y="0.2962536941066567"/><rect fill="oklch(55.3% 0.195 38.402)" height="0.7811211137432968" width="1" x="9" y="0.21887888625670315"/><rect fill="oklch(55.3% 0.195 38.402)" height="0.6860867190569078" width="1" x="10" y="0.31391328094309223"/><rect fill="oklch(55.3% 0.195 38.402)" height="0.7792800729006378" width="1" x="11" y="0.22071992709936217"/><rect fill="oklch(55.3% 0.195 38.402)" height="0.9225406694604281" width="1" x="12" y="0.07745933053957188"/><rect fill="oklch(55.3% 0.195 38.402)" height="0.9287187814508234" width="1" x="13" y="0.07128121854917657"/><rect fill="oklch(55.3% 0.195 38.402)" height="0.9499932365928533" width="1" x="14" y="0.050006763407146715"/><rect fill="oklch(55.3% 0.195 38.402)" height="0.7323568287769725" width="1" x="15" y="0.2676431712230275"/><rect fill="oklch(55.3% 0.195 38.402)" height="0.7958120428137908" width="1" x="16" y="0.2041879571862092"/><rect fill="oklch(55.3% 0.195 38.402)" height="0.8986365622523372" width="1" x="17" y="0.10136343774766277"/><rect fill="oklch(55.3% 0.195 38.402)" height="0.8092961668900163" width="1" x="18" y="0.19070383310998373"/><rect fill="oklch(55.3% 0.195 38.402)" height="0.8006036217262589" width="1" x="19" y="0.19939637827374113"/><rect fill="oklch(55.3% 0.195 38.402)" height="0.829788923327418" width="1" x="20" y="0.17021107667258195"/><rect fill="oklch(55.3% 0.195 38.402)" height="0.76432350561121" width="1" x="21" y="0.23567649438879001"/><rect fill="oklch(55.3% 0.195 38.402)" height="0.7938802015077112" width="1" x="22" y="0.20611979849228879"/><rect fill="oklch(55.3% 0.195 38.402)" height="0.8285866621322018" width="1" x="23" y="0.17141333786779822"/><rect fill="oklch(55.3% 0.195 38.402)" height="0.7264920594288228" width="1" x="24" y="0.2735079405711772"/><rect fill="oklch(55.3% 0.195 38.402)" height="0.7794121870140825" width="1" x="25" y="0.22058781298591745"/><rect fill="oklch(55.3% 0.195 38.402)" height="0.7395424589501953" width="1" x="26" y="0.2604575410498047"/><rect fill="oklch(55.3% 0.195 38.402)" height="0.7683676895516848" width="1" x="27" y="0.23163231044831523"/><rect fill="oklch(55.3% 0.195 38.402)" height="0.5997034974413558" width="1" x="28" y="0.40029650255864424"/><rect fill="oklch(55.3% 0.195 38.402)" height="0.6763887511525166" width="1" x="29" y="0.3236112488474834"/><rect fill="oklch(55.3% 0.195 38.402)" height="0.9019372886941194" width="1" x="30" y="0.09806271130588062"/><rect fill="oklch(55.3% 0.195 38.402)" height="0.8546704225773388" width="1" x="31" y="0.14532957742266117"/><rect fill="oklch(55.3% 0.195 38.402)" height="0.7660789860337465" width="1" x="32" y="0.23392101396625353"/><rect fill="oklch(55.3% 0.195 38.402)" height="0.5323342282239115" width="1" x="33" y="0.4676657717760885"/><rect fill="oklch(55.3% 0.195 38.402)" height="0.6276861642464149" width="1" x="34" y="0.3723138357535851"/><rect fill="oklch(55.3% 0.195 38.402)" height="0.7654817710405776" width="1" x="35" y="0.23451822895942243"/><rect fill="oklch(55.3% 0.195 38.402)" height="0.8452768523005609" width="1" x="36" y="0.15472314769943907"/><rect fill="oklch(55.3% 0.195 38.402)" height="0.9527488780233698" width="1" x="37" y="0.04725112197663017"/><rect fill="oklch(55.3% 0.195 38.402)" height="0.8455893287018434" width="1" x="38" y="0.15441067129815655"/><rect fill="oklch(55.3% 0.195 38.402)" height="0.7333915784419455" width="1" x="39" y="0.26660842155805453"/><rect fill="oklch(55.3% 0.195 38.402)" height="0.7000342109289391" width="1" x="40" y="0.29996578907106086"/><rect fill="oklch(55.3% 0.195 38.402)" height="0.8920274921215546" width="1" x="41" y="0.10797250787844537"/><rect fill="oklch(55.3% 0.195 38.402)" height="0.7944296852665856" width="1" x="42" y="0.20557031473341436"/><rect fill="oklch(55.3% 0.195 38.402)" height="0.8820391984645246" width="1" x="43" y="0.11796080153547539"/><rect fill="oklch(55.3% 0.195 38.402)" height="0.813482064853692" width="1" x="44" y="0.186517935146308"/><rect fill="oklch(55.3% 0.195 38.402)" height="0.6952053787491268" width="1" x="45" y="0.3047946212508732"/><rect fill="oklch(55.3% 0.195 38.402)" height="0.7875512286291442" width="1" x="46" y="0.21244877137085583"/><rect fill="oklch(55.3% 0.195 38.402)" height="0.8603499696548905" width="1" x="47" y="0.13965003034510948"/><rect fill="oklch(55.3% 0.195 38.402)" height="0.813095124987068" width="1" x="48" y="0.18690487501293196"/><rect fill="oklch(55.3% 0.195 38.402)" height="0.9374486634108538" width="1" x="49" y="0.06255133658914624"/><rect fill="oklch(55.3% 0.195 38.402)" height="0.8043980379745375" width="1" x="50" y="0.19560196202546254"/><rect fill="oklch(55.3% 0.195 38.402)" height="0.7276007846962518" width="1" x="51" y="0.2723992153037482"/><rect fill="oklch(55.3% 0.195 38.402)" height="0.7048330107572618" width="1" x="52" y="0.2951669892427382"/><rect fill="oklch(55.3% 0.195 38.402)" height="0.8542281328688176" width="1" x="53" y="0.1457718671311824"/><rect fill="oklch(55.3% 0.195 38.402)" height="0.7639773081357141" width="1" x="54" y="0.23602269186428593"/><rect fill="oklch(55.3% 0.195 38.402)" height="0.8304625001964547" width="1" x="55" y="0.16953749980354527"/><rect fill="oklch(55.3% 0.195 38.402)" height="0.768351791985208" width="1" x="56" y="0.23164820801479202"/><rect fill="oklch(55.3% 0.195 38.402)" height="0.6171890720142513" width="1" x="57" y="0.3828109279857487"/><rect fill="oklch(55.3% 0.195 38.402)" height="0.5845851995903321" width="1" x="58" y="0.41541480040966794"/><rect fill="oklch(55.3% 0.195 38.402)" height="0.7589721271047857" width="1" x="59" y="0.24102787289521432"/><rect fill="oklch(55.3% 0.195 38.402)" height="0.6360638210648977" width="1" x="60" y="0.36393617893510233"/><rect fill="oklch(55.3% 0.195 38.402)" height="0.7027906670170869" width="1" x="61" y="0.2972093329829131"/><rect fill="oklch(55.3% 0.195 38.402)" height="0.820231684791962" width="1" x="62" y="0.17976831520803804"/><rect fill="oklch(55.3% 0.195 38.402)" height="0.6043680765875491" width="1" x="63" y="0.3956319234124509"/><rect fill="oklch(55.3% 0.195 38.402)" height="0.7688175222596866" width="1" x="64" y="0.23118247774031342"/><rect fill="oklch(55.3% 0.195 38.402)" height="0.7996501729035169" width="1" x="65" y="0.20034982709648308"/><rect fill="oklch(55.3% 0.195 38.402)" height="0.7249552255425076" width="1" x="66" y="0.2750447744574924"/><rect fill="oklch(55.3% 0.195 38.402)" height="0.5611870976416456" width="1" x="67" y="0.43881290235835435"/><rect fill="oklch(55.3% 0.195 38.402)" height="0.5903697197891483" width="1" x="68" y="0.4096302802108517"/><rect fill="oklch(55.3% 0.195 38.402)" height="0.5913884552807469" width="1" x="69" y="0.4086115447192531"/><rect fill="oklch(55.3% 0.195 38.402)" height="0.6021589801732017" width="1" x="70" y="0.3978410198267983"/><rect fill="oklch(55.3% 0.195 38.402)" height="0.7770592756872372" width="1" x="71" y="0.2229407243127628"/><rect fill="oklch(55.3% 0.195 38.402)" height="0.7438080694777723" width="1" x="72" y="0.25619193052222766"/><rect fill="oklch(55.3% 0.195 38.402)" height="0.9032777815725932" width="1" x="73" y="0.0967222184274068"/><rect fill="oklch(55.3% 0.195 38.402)" height="0.8454745107246279" width="1" x="74" y="0.15452548927537213"/><rect fill="oklch(55.3% 0.195 38.402)" height="0.7754542601085912" width="1" x="75" y="0.2245457398914088"/><rect fill="oklch(55.3% 0.195 38.402)" height="0.6410013841502458" width="1" x="76" y="0.35899861584975423"/><rect fill="oklch(55.3% 0.195 38.402)" height="0.7166968136663087" width="1" x="77" y="0.28330318633369134"/><rect fill="oklch(55.3% 0.195 38.402)" height="1" width="1" x="78" y="0"/><rect fill="oklch(55.3% 0.195 38.402)" height="0.9504323838745636" width="1" x="79" y="0.049567616125436365"/><rect fill="oklch(55.3% 0.195 38.402)" height="0.8525057922858338" width="1" x="80" y="0.14749420771416621"/><rect fill="oklch(55.3% 0.195 38.402)" height="0.730973210758708" width="1" x="81" y="0.269026789241292"/><rect fill="oklch(55.3% 0.195 38.402)" height="0.768544372095224" width="1" x="82" y="0.23145562790477603"/><rect fill="oklch(55.3% 0.195 38.402)" height="0.734471968588534" width="1" x="83" y="0.26552803141146597"/><rect fill="oklch(55.3% 0.195 38.402)" height="0.6318050540867688" width="1" x="84" y="0.3681949459132312"/><rect fill="oklch(55.3% 0.195 38.402)" height="0.6354884709935633" width="1" x="85" y="0.3645115290064367"/><rect fill="oklch(55.3% 0.195 38.402)" height="0.7203661657739222" width="1" x="86" y="0.2796338342260778"/><rect fill="oklch(55.3% 0.195 38.402)" height="0.7219805378294575" width="1" x="87" y="0.2780194621705425"/><rect fill="oklch(55.3% 0.195 38.402)" height="0.6661154821329918" width="1" x="88" y="0.33388451786700823"/><rect fill="oklch(55.3% 0.195 38.402)" height="0.7406112973263328" width="1" x="89" y="0.2593887026736672"/><rect fill="oklch(55.3% 0.195 38.402)" height="0.7488628824727903" width="1" x="90" y="0.2511371175272097"/><rect fill="oklch(55.3% 0.195 38.402)" height="0.7227444225862704" width="1" x="91" y="0.27725557741372964"/><rect fill="oklch(55.3% 0.195 38.402)" height="0.5357383990394696" width="1" x="92" y="0.4642616009605304"/><rect fill="oklch(55.3% 0.195 38.402)" height="0.6252302150665615" width="1" x="93" y="0.3747697849334385"/><rect fill="oklch(55.3% 0.195 38.402)" height="0.6659211097108855" width="1" x="94" y="0.3340788902891145"/><rect fill="oklch(55.3% 0.195 38.402)" height="0.9559047143734584" width="1" x="95" y="0.044095285626541636"/><rect fill="oklch(55.3% 0.195 38.402)" height="0.4557501744169166" width="1" x="96" y="0.5442498255830834"/><rect fill="oklch(55.3% 0.195 38.402)" height="0.0032114733968623805" width="1" x="97" y="0.9967885266031377"/><rect fill="oklch(55.3% 0.195 38.402)" height="0.000015652184949228958" width="1" x="98" y="0.9999843478150507"/><rect fill="oklch(55.3% 0.195 38.402)" height="5.716434287680313e-7" width="1" x="99" y="0.9999994283565712"/></svg>