<svg xmlns="http://www.w3.org/2000/svg" preserveAspectRatio="none" viewBox="0 0 100 1"><rect fill="oklch(55.3% 0.195 38.402)" height="0.14128947515433368" width="1" x="0" y="0.8587105248456663"/><rect fill="oklch(55.3% 0.195 38.402)" height="0.10594456237246602" width="1" x="1" y="0.894055437627534"/><rect fill="oklch(55.3% 0.195 38.402)" height="0.1584314264349213" width="1" x="2" y="0.8415685735650786"/><rect fill="oklch(55.3% 0.195 38.402)" height="0.1975733864351073" width="1" x="3" y="0.8024266135648928"/><rect fill="oklch(55.3% 0.195 38.402)" height="0.3899009051742274" width="1" x="4" y="0.6100990948257726"/><rect fill="oklch(55.3% 0.195 38.402)" height="0.4082145987756299" width="1" x="5" y="0.5917854012243702"/><rect fill="oklch(55.3% 0.195 38.402)" height="0.41871345685867206" width="1" x="6" y="0.5812865431413279"/><rect fill="oklch(55.3% 0.195 38.402)" height="0.43233437444938977" width="1" x="7" y="0.5676656255506103"/><rect fill="oklch(55.3% 0.195 38.402)" height="0.3538941009711214" width="1" x="8" y="0.6461058990288786"/><rect fill="oklch(55.3% 0.195 38.402)" height="0.6645986725945254" width="1" x="9" y="0.33540132740547457"/><rect fill="oklch(55.3% 0.195 38.402)" height="0.6524202978018163" width="1" x="10" y="0.3475797021981837"/><rect fill="oklch(55.3% 0.195 38.402)" height="0.5393170983162519" width="1" x="11" y="0.46068290168374815"/><rect fill="oklch(55.3% 0.195 38.402)" height="0.6893200043193933" width="1" x="12" y="0.31067999568060667"/><rect fill="oklch(55.3% 0.195 38.402)" height="0.8619990572664463" width="1" x="13" y="0.13800094273355368"/><rect fill="oklch(55.3% 0.195 38.402)" height="0.6621005987319667" width="1" x="14" y="0.3378994012680333"/><rect fill="oklch(55.3% 0.195 38.402)" height="0.706067138616854" width="1" x="15" y="0.293932861383146"/><rect fill="oklch(55.3% 0.195 38.402)" height="0.8059511462113568" width="1" x="16" y="0.19404885378864323"/><rect fill="oklch(55.3% 0.195 38.402)" height="0.6020156330805058" width="1" x="17" y="0.39798436691949424"/><rect fill="oklch(55.3% 0.195 38.402)" height="0.6236951316369846" width="1" x="18" y="0.37630486836301535"/><rect fill="oklch(55.3% 0.195 38.402)" height="0.6009686731326833" width="1" x="19" y="0.3990313268673167"/><rect fill="oklch(55.3% 0.195 38.402)" height="0.6955241478419841" width="1" x="20" y="0.30447585215801587"/><rect fill="oklch(55.3% 0.195 38.402)" height="0.7538572963512841" width="1" x="21" y="0.24614270364871593"/><rect fill="oklch(55.3% 0.195 38.402)" height="0.8348878101553846" width="1" x="22" y="0.1651121898446154"/><rect fill="oklch(55.3% 0.195 38.402)" height="0.7277211203301439" width="1" x="23" y="0.2722788796698561"/><rect fill="oklch(55.3% 0.195 38.402)" height="0.7659978608134743" width="1" x="24" y="0.23400213918652568"/><rect fill="oklch(55.3% 0.195 38.402)" height="0.8140154391842546" width="1" x="25" y="0.18598456081574544"/><rect fill="oklch(55.3% 0.195 38.402)" height="0.7277732301830416" width="1" x="26" y="0.27222676981695837"/><rect fill="oklch(55.3% 0.195 38.402)" height="0.7290220965842829" width="1" x="27" y="0.27097790341571715"/><rect fill="oklch(55.3% 0.195 38.402)" height="0.743992571012097" width="1" x="28" y="0.25600742898790296"/><rect fill="oklch(55.3% 0.195 38.402)" height="0.695392614074928" width="1" x="29" y="0.30460738592507197"/><rect fill="oklch(55.3% 0.195 38.402)" height="0.6403098874435175" width="1" x="30" y="0.35969011255648253"/><rect fill="oklch(55.3% 0.195 38.402)" height="0.6571291609912128" width="1" x="31" y="0.34287083900878723"/><rect fill="oklch(55.3% 0.195 38.402)" height="0.6422576787320123" width="1" x="32" y="0.35774232126798766"/><rect fill="oklch(55.3% 0.195 38.402)" height="0.6646656029099738" width="1" x="33" y="0.3353343970900262"/><rect fill="oklch(55.3% 0.195 38.402)" height="0.49839091206712616" width="1" x="34" y="0.5016090879328738"/><rect fill="oklch(55.3% 0.195 38.402)" height="0.6745195575667154" width="1" x="35" y="0.32548044243328456"/><rect fill="oklch(55.3% 0.195 38.402)" height="0.5731229200715084" width="1" x="36" y="0.42687707992849155"/><rect fill="oklch(55.3% 0.195 38.402)" height="0.6675429913339612" width="1" x="37" y="0.3324570086660388"/><rect fill="oklch(55.3% 0.195 38.402)" height="0.6159928562740932" width="1" x="38" y="0.38400714372590683"/><rect fill="oklch(55.3% 0.195 38.402)" height="0.8601912972743889" width="1" x="39" y="0.13980870272561108"/><rect fill="oklch(55.3% 0.195 38.402)" height="0.6904660595135582" width="1" x="40" y="0.3095339404864418"/><rect fill="oklch(55.3% 0.195 38.402)" height="0.5897832051057162" width="1" x="41" y="0.41021679489428375"/><rect fill="oklch(55.3% 0.195 38.402)" height="0.8011406731269279" width="1" x="42" y="0.19885932687307206"/><rect fill="oklch(55.3% 0.195 38.402)" height="0.4916231118078352" width="1" x="43" y="0.5083768881921649"/><rect fill="oklch(55.3% 0.195 38.402)" height="1" width="1" x="44" y="0"/><rect fill="oklch(55.3% 0.195 38.402)" height="0.6602014166763501" width="1" x="45" y="0.33979858332364987"/><rect fill="oklch(55.3% 0.195 38.402)" height="0.6716643765760709" width="1" x="46" y="0.3283356234239291"/><rect fill="oklch(55.3% 0.195 38.402)" height="0.6697980945492288" width="1" x="47" y="0.3302019054507712"/><rect fill="oklch(55.3% 0.195 38.402)" height="0.8969198666941355" width="1" x="48" y="0.10308013330586452"/><rect fill="oklch(55.3% 0.195 38.402)" height="0.6156448873505485" width="1" x="49" y="0.38435511264945155"/><rect fill="oklch(55.3% 0.195 38.402)" height="0.6932579773156247" width="1" x="50" y="0.30674202268437534"/><rect fill="oklch(55.3% 0.195 38.402)" height="0.6164469610082095" width="1" x="51" y="0.3835530389917905"/><rect fill="oklch(55.3% 0.195 38.402)" height="0.561140077917273" width="1" x="52" y="0.43885992208272695"/><rect fill="oklch(55.3% 0.195 38.402)" height="0.7453756543387697" width="1" x="53" y="0.25462434566123027"/><rect fill="oklch(55.3% 0.195 38.402)" height="0.6874878386722638" width="1" x="54" y="0.3125121613277362"/><rect fill="oklch(55.3% 0.195 38.402)" height="0.7518239398064409" width="1" x="55" y="0.2481760601935591"/><rect fill="oklch(55.3% 0.195 38.402)" height="0.6619168296521567" width="1" x="56" y="0.3380831703478433"/><rect fill="oklch(55.3% 0.195 38.402)" height="0.7428791622601225" width="1" x="57" y="0.2571208377398775"/><rect fill="oklch(55.3% 0.195 38.402)" height="0.673189499191428" width="1" x="58" y="0.326810500808572"/><rect fill="oklch(55.3% 0.195 38.402)" height="0.6445768739698521" width="1" x="59" y="0.3554231260301479"/><rect fill="oklch(55.3% 0.195 38.402)" height="0.6105738877066126" width="1" x="60" y="0.3894261122933874"/><rect fill="oklch(55.3% 0.195 38.402)" height="0.667054339169635" width="1" x="61" y="0.33294566083036503"/><rect fill="oklch(55.3% 0.195 38.402)" height="0.7903854268552006" width="1" x="62" y="0.20961457314479937"/><rect fill="oklch(55.3% 0.195 38.402)" height="0.6705670262007514" width="1" x="63" y="0.32943297379924863"/><rect fill="oklch(55.3% 0.195 38.402)" height="0.6986702158602431" width="1" x="64" y="0.30132978413975686"/><rect fill="oklch(55.3% 0.195 38.402)" height="0.6748830872433778" width="1" x="65" y="0.32511691275662224"/><rect fill="oklch(55.3% 0.195 38.402)" height="0.693931871067813" width="1" x="66" y="0.30606812893218704"/><rect fill="oklch(55.3% 0.195 38.402)" height="0.612584599621592" width="1" x="67" y="0.38741540037840805"/><rect fill="oklch(55.3% 0.195 38.402)" height="0.74212293565149" width="1" x="68" y="0.25787706434851"/><rect fill="oklch(55.3% 0.195 38.402)" height="0.5335132933205367" width="1" x="69" y="0.46648670667946335"/><rect fill="oklch(55.3% 0.195 38.402)" height="0.4943874134131229" width="1" x="70" y="0.505612586586877"/><rect fill="oklch(55.3% 0.195 38.402)" height="0.4481455446479382" width="1" x="71" y="0.5518544553520618"/><rect fill="oklch(55.3% 0.195 38.402)" height="0.3296352770944138" width="1" x="72" y="0.6703647229055862"/><rect fill="oklch(55.3% 0.195 38.402)" height="0.22972035504150765" width="1" x="73" y="0.7702796449584923"/><rect fill="oklch(55.3% 0.195 38.402)" height="0.23601533431830085" width="1" x="74" y="0.7639846656816991"/><rect fill="oklch(55.3% 0.195 38.402)" height="0.09789340737172594" width="1" x="75" y="0.9021065926282741"/><rect fill="oklch(55.3% 0.195 38.402)" height="0.3113706492813464" width="1" x="76" y="0.6886293507186536"/><rect fill="oklch(55.3% 0.195 38.402)" height="0.14752196443215398" width="1" x="77" y="0.8524780355678461"/><rect fill="oklch(55.3% 0.195 38.402)" height="0.13345442892556186" width="1" x="78" y="0.8665455710744381"/><rect fill="oklch(55.3% 0.195 38.402)" height="0.18742636429180123" width="1" x="79" y="0.8125736357081987"/><rect fill="oklch(55.3% 0.195 38.402)" height="0.3258176273663082" width="1" x="80" y="0.6741823726336917"/><rect fill="oklch(55.3% 0.195 38.402)" height="0.1896294097398257" width="1" x="81" y="0.8103705902601743"/><rect fill="oklch(55.3% 0.195 38.402)" height="0.12184436508847438" width="1" x="82" y="0.8781556349115256"/><rect fill="oklch(55.3% 0.195 38.402)" height="0.17789486135703653" width="1" x="83" y="0.8221051386429634"/><rect fill="oklch(55.3% 0.195 38.402)" height="0.4795436161878115" width="1" x="84" y="0.5204563838121885"/><rect fill="oklch(55.3% 0.195 38.402)" height="0.26171012768645274" width="1" x="85" y="0.7382898723135473"/><rect fill="oklch(55.3% 0.195 38.402)" height="0.10176831826839229" width="1" x="86" y="0.8982316817316077"/><rect fill="oklch(55.3% 0.195 38.402)" height="0.0815684059259771" width="1" x="87" y="0.9184315940740229"/><rect fill="oklch(55.3% 0.195 38.402)" height="0.4635949890261786" width="1" x="88" y="0.5364050109738214"/><rect fill="oklch(55.3% 0.195 38.402)" height="0.288750056579306" width="1" x="89" y="0.711249943420694"/><rect fill="oklch(55.3% 0.195 38.402)" height="0.19154817766547014" width="1" x="90" y="0.8084518223345298"/><rect fill="oklch(55.3% 0.195 38.402)" height="0.10300978607574168" width="1" x="91" y="0.8969902139242583"/><rect fill="oklch(55.3% 0.195 38.402)" height="0.1398252341402318" width="1" x="92" y="0.8601747658597683"/><rect fill="oklch(55.3% 0.195 38.402)" height="0.13967140918300033" width="1" x="93" y="0.8603285908169996"/><rect fill="oklch(55.3% 0.195 38.402)" height="0.005379228097303204" width="1" x="94" y="0.9946207719026968"/><rect fill="oklch(55.3% 0.195 38.402)" height="0.000011739201362015521" width="1" x="95" y="0.999988260798638"/><rect fill="oklch(55.3% 0.195 38.402)" height="0" width="1" x="96" y="1"/><rect fill="oklch(55.3% 0.195 38.402)" height="0" width="1" x="97" y="1"/><rect fill="oklch(55.3% 0.195 38.402)" height="0" width="1" x="98" y="1"/><rect fill="oklch(55.3% 0.195 38.402)" height="0" width="1" x="99" y="1"/></svg>