<svg xmlns="http://www.w3.org/2000/svg" preserveAspectRatio="none" viewBox="0 0 100 1"><rect fill="oklch(55.3% 0.195 38.402)" height="0.9230520087914472" width="1" x="0" y="0.07694799120855278"/><rect fill="oklch(55.3% 0.195 38.402)" height="0.941968249717236" width="1" x="1" y="0.05803175028276397"/><rect fill="oklch(55.3% 0.195 38.402)" height="0.873066612731621" width="1" x="2" y="0.126933387268379"/><rect fill="oklch(55.3% 0.195 38.402)" height="0.8774546148798746" width="1" x="3" y="0.12254538512012536"/><rect fill="oklch(55.3% 0.195 38.402)" height="0.8263670471219094" width="1" x="4" y="0.17363295287809055"/><rect fill="oklch(55.3% 0.195 38.402)" height="0.975313411396647" width="1" x="5" y="0.024686588603353044"/><rect fill="oklch(55.3% 0.195 38.402)" height="0.7827207525798338" width="1" x="6" y="0.21727924742016624"/><rect fill="oklch(55.3% 0.195 38.402)" height="0.8491992263164467" width="1" x="7" y="0.15080077368355327"/><rect fill="oklch(55.3% 0.195 38.402)" height="0.9129944690946032" width="1" x="8" y="0.08700553090539676"/><rect fill="oklch(55.3% 0.195 38.402)" height="0.9112111564269302" width="1" x="9" y="0.08878884357306982"/><rect fill="oklch(55.3% 0.195 38.402)" height="0.8928302643192765" width="1" x="10" y="0.10716973568072352"/><rect fill="oklch(55.3% 0.195 38.402)" height="0.7860878642498661" width="1" x="11" y="0.2139121357501339"/><rect fill="oklch(55.3% 0.195 38.402)" height="0.9637912632332235" width="1" x="12" y="0.036208736766776495"/><rect fill="oklch(55.3% 0.195 38.402)" height="0.8931109594989991" width="1" x="13" y="0.1068890405010009"/><rect fill="oklch(55.3% 0.195 38.402)" height="0.805137838358634" width="1" x="14" y="0.19486216164136605"/><rect fill="oklch(55.3% 0.195 38.402)" height="0.7981763013660177" width="1" x="15" y="0.2018236986339823"/><rect fill="oklch(55.3% 0.195 38.402)" height="0.8445919183752101" width="1" x="16" y="0.15540808162478992"/><rect fill="oklch(55.3% 0.195 38.402)" height="0.8148336672463488" width="1" x="17" y="0.18516633275365124"/><rect fill="oklch(55.3% 0.195 38.402)" height="0.8279306981624954" width="1" x="18" y="0.17206930183750457"/><rect fill="oklch(55.3% 0.195 38.402)" height="0.8372217401087736" width="1" x="19" y="0.1627782598912264"/><rect fill="oklch(55.3% 0.195 38.402)" height="0.9199094612927133" width="1" x="20" y="0.08009053870728666"/><rect fill="oklch(55.3% 0.195 38.402)" height="0.9286524088202488" width="1" x="21" y="0.0713475911797512"/><rect fill="oklch(55.3% 0.195 38.402)" height="0.9027457663541556" width="1" x="22" y="0.0972542336458444"/><rect fill="oklch(55.3% 0.195 38.402)" height="0.8739331408527453" width="1" x="23" y="0.12606685914725468"/><rect fill="oklch(55.3% 0.195 38.402)" height="0.8278319625926562" width="1" x="24" y="0.17216803740734377"/><rect fill="oklch(55.3% 0.195 38.402)" height="0.7776240992954996" width="1" x="25" y="0.22237590070450042"/><rect fill="oklch(55.3% 0.195 38.402)" height="0.8181842125894621" width="1" x="26" y="0.18181578741053794"/><rect fill="oklch(55.3% 0.195 38.402)" height="0.7810580178626972" width="1" x="27" y="0.21894198213730276"/><rect fill="oklch(55.3% 0.195 38.402)" height="0.8650477745221369" width="1" x="28" y="0.13495222547786312"/><rect fill="oklch(55.3% 0.195 38.402)" height="1" width="1" x="29" y="0"/><rect fill="oklch(55.3% 0.195 38.402)" height="0.844064454453279" width="1" x="30" y="0.15593554554672096"/><rect fill="oklch(55.3% 0.195 38.402)" height="0.8591200784819266" width="1" x="31" y="0.14087992151807338"/><rect fill="oklch(55.3% 0.195 38.402)" height="0.8084610391435283" width="1" x="32" y="0.1915389608564717"/><rect fill="oklch(55.3% 0.195 38.402)" height="0.9458107370789086" width="1" x="33" y="0.054189262921091386"/><rect fill="oklch(55.3% 0.195 38.402)" height="0.9642751184232116" width="1" x="34" y="0.035724881576788436"/><rect fill="oklch(55.3% 0.195 38.402)" height="0.939461313513264" width="1" x="35" y="0.06053868648673599"/><rect fill="oklch(55.3% 0.195 38.402)" height="0.956173113493568" width="1" x="36" y="0.04382688650643196"/><rect fill="oklch(55.3% 0.195 38.402)" height="0.8577027143067538" width="1" x="37" y="0.14229728569324618"/><rect fill="oklch(55.3% 0.195 38.402)" height="0.8614846401870954" width="1" x="38" y="0.13851535981290464"/><rect fill="oklch(55.3% 0.195 38.402)" height="0.8836108822588834" width="1" x="39" y="0.1163891177411166"/><rect fill="oklch(55.3% 0.195 38.402)" height="0.8040785222408686" width="1" x="40" y="0.19592147775913138"/><rect fill="oklch(55.3% 0.195 38.402)" height="0.8490985413919426" width="1" x="41" y="0.15090145860805737"/><rect fill="oklch(55.3% 0.195 38.402)" height="0.8319756803868008" width="1" x="42" y="0.1680243196131992"/><rect fill="oklch(55.3% 0.195 38.402)" height="0.950978501948836" width="1" x="43" y="0.04902149805116396"/><rect fill="oklch(55.3% 0.195 38.402)" height="0.9836268556386496" width="1" x="44" y="0.0163731443613504"/><rect fill="oklch(55.3% 0.195 38.402)" height="0.8065302378658034" width="1" x="45" y="0.19346976213419664"/><rect fill="oklch(55.3% 0.195 38.402)" height="0.7323223621088802" width="1" x="46" y="0.26767763789111976"/><rect fill="oklch(55.3% 0.195 38.402)" height="0.8634651296753115" width="1" x="47" y="0.13653487032468847"/><rect fill="oklch(55.3% 0.195 38.402)" height="0.8384072381308052" width="1" x="48" y="0.1615927618691948"/><rect fill="oklch(55.3% 0.195 38.402)" height="0.9803272376339008" width="1" x="49" y="0.01967276236609916"/><rect fill="oklch(55.3% 0.195 38.402)" height="0.881827332252641" width="1" x="50" y="0.11817266774735902"/><rect fill="oklch(55.3% 0.195 38.402)" height="0.7949192975426321" width="1" x="51" y="0.20508070245736787"/><rect fill="oklch(55.3% 0.195 38.402)" height="0.9120227306332739" width="1" x="52" y="0.08797726936672612"/><rect fill="oklch(55.3% 0.195 38.402)" height="0.7343970958243332" width="1" x="53" y="0.2656029041756668"/><rect fill="oklch(55.3% 0.195 38.402)" height="0.790326697292094" width="1" x="54" y="0.20967330270790596"/><rect fill="oklch(55.3% 0.195 38.402)" height="0.8140386519896076" width="1" x="55" y="0.18596134801039244"/><rect fill="oklch(55.3% 0.195 38.402)" height="0.8894494681154156" width="1" x="56" y="0.11055053188458441"/><rect fill="oklch(55.3% 0.195 38.402)" height="0.9801973338633532" width="1" x="57" y="0.01980266613664683"/><rect fill="oklch(55.3% 0.195 38.402)" height="0.7957454774725878" width="1" x="58" y="0.20425452252741216"/><rect fill="oklch(55.3% 0.195 38.402)" height="0.8112223641863872" width="1" x="59" y="0.18877763581361284"/><rect fill="oklch(55.3% 0.195 38.402)" height="0.8924636818314823" width="1" x="60" y="0.10753631816851772"/><rect fill="oklch(55.3% 0.195 38.402)" height="0.8136759278495027" width="1" x="61" y="0.1863240721504973"/><rect fill="oklch(55.3% 0.195 38.402)" height="0.9109621216600874" width="1" x="62" y="0.08903787833991261"/><rect fill="oklch(55.3% 0.195 38.402)" height="0.8165161243016537" width="1" x="63" y="0.18348387569834634"/><rect fill="oklch(55.3% 0.195 38.402)" height="0.8446309579430692" width="1" x="64" y="0.1553690420569308"/><rect fill="oklch(55.3% 0.195 38.402)" height="0.8678207339746729" width="1" x="65" y="0.13217926602532715"/><rect fill="oklch(55.3% 0.195 38.402)" height="0.7401049738931257" width="1" x="66" y="0.2598950261068743"/><rect fill="oklch(55.3% 0.195 38.402)" height="0.9384890970073166" width="1" x="67" y="0.06151090299268336"/><rect fill="oklch(55.3% 0.195 38.402)" height="0.9263620183536437" width="1" x="68" y="0.07363798164635627"/><rect fill="oklch(55.3% 0.195 38.402)" height="0.8316567864136218" width="1" x="69" y="0.16834321358637816"/><rect fill="oklch(55.3% 0.195 38.402)" height="0.841609870907702" width="1" x="70" y="0.158390129092298"/><rect fill="oklch(55.3% 0.195 38.402)" height="0.8145468656622337" width="1" x="71" y="0.18545313433776633"/><rect fill="oklch(55.3% 0.195 38.402)" height="0.8007265466295558" width="1" x="72" y="0.19927345337044422"/><rect fill="oklch(55.3% 0.195 38.402)" height="0.9089156184840864" width="1" x="73" y="0.09108438151591358"/><rect fill="oklch(55.3% 0.195 38.402)" height="0.7397001424104575" width="1" x="74" y="0.26029985758954255"/><rect fill="oklch(55.3% 0.195 38.402)" height="0.9253193981110587" width="1" x="75" y="0.07468060188894132"/><rect fill="oklch(55.3% 0.195 38.402)" height="0.889117588783502" width="1" x="76" y="0.110882411216498"/><rect fill="oklch(55.3% 0.195 38.402)" height="0.7625051135410534" width="1" x="77" y="0.23749488645894656"/><rect fill="oklch(55.3% 0.195 38.402)" height="0.8096724131151748" width="1" x="78" y="0.1903275868848252"/><rect fill="oklch(55.3% 0.195 38.402)" height="0.8896016153988936" width="1" x="79" y="0.1103983846011064"/><rect fill="oklch(55.3% 0.195 38.402)" height="0.8056830595844379" width="1" x="80" y="0.19431694041556213"/><rect fill="oklch(55.3% 0.195 38.402)" height="0.9817018099423094" width="1" x="81" y="0.018298190057690622"/><rect fill="oklch(55.3% 0.195 38.402)" height="0.8785803219405061" width="1" x="82" y="0.12141967805949394"/><rect fill="oklch(55.3% 0.195 38.402)" height="0.9251162872618184" width="1" x="83" y="0.07488371273818162"/><rect fill="oklch(55.3% 0.195 38.402)" height="0.9122519045659567" width="1" x="84" y="0.08774809543404327"/><rect fill="oklch(55.3% 0.195 38.402)" height="0.7988816005383518" width="1" x="85" y="0.20111839946164822"/><rect fill="oklch(55.3% 0.195 38.402)" height="0.8243815460310653" width="1" x="86" y="0.17561845396893472"/><rect fill="oklch(55.3% 0.195 38.402)" height="0.8681939636287014" width="1" x="87" y="0.13180603637129862"/><rect fill="oklch(55.3% 0.195 38.402)" height="0.8983808922673375" width="1" x="88" y="0.10161910773266247"/><rect fill="oklch(55.3% 0.195 38.402)" height="0.9907966270319327" width="1" x="89" y="0.00920337296806728"/><rect fill="oklch(55.3% 0.195 38.402)" height="0.8894694743830546" width="1" x="90" y="0.11053052561694543"/><rect fill="oklch(55.3% 0.195 38.402)" height="0.9292726431482985" width="1" x="91" y="0.0707273568517015"/><rect fill="oklch(55.3% 0.195 38.402)" height="0.9048776805573324" width="1" x="92" y="0.09512231944266758"/><rect fill="oklch(55.3% 0.195 38.402)" height="0.7843590806817142" width="1" x="93" y="0.21564091931828577"/><rect fill="oklch(55.3% 0.195 38.402)" height="0.8548735546439757" width="1" x="94" y="0.14512644535602426"/><rect fill="oklch(55.3% 0.195 38.402)" height="0.9525833923681135" width="1" x="95" y="0.04741660763188649"/><rect fill="oklch(55.3% 0.195 38.402)" height="0.9720518994424698" width="1" x="96" y="0.027948100557530164"/><rect fill="oklch(55.3% 0.195 38.402)" height="0.14074438998302866" width="1" x="97" y="0.8592556100169714"/><rect fill="oklch(55.3% 0.195 38.402)" height="0.012853974803251416" width="1" x="98" y="0.9871460251967485"/><rect fill="oklch(55.3% 0.195 38.402)" height="1.8495597510215245e-8" width="1" x="99" y="0.9999999815044025"/></svg>