<svg xmlns="http://www.w3.org/2000/svg" preserveAspectRatio="none" viewBox="0 0 100 1"><rect fill="oklch(55.3% 0.195 38.402)" height="0.00005076596039856293" width="1" x="0" y="0.9999492340396015"/><rect fill="oklch(55.3% 0.195 38.402)" height="0.6816677202079979" width="1" x="1" y="0.31833227979200207"/><rect fill="oklch(55.3% 0.195 38.402)" height="0.7125715905697144" width="1" x="2" y="0.2874284094302856"/><rect fill="oklch(55.3% 0.195 38.402)" height="0.8113620016347224" width="1" x="3" y="0.18863799836527761"/><rect fill="oklch(55.3% 0.195 38.402)" height="0.7204724220525117" width="1" x="4" y="0.2795275779474883"/><rect fill="oklch(55.3% 0.195 38.402)" height="0.8249632831910775" width="1" x="5" y="0.17503671680892252"/><rect fill="oklch(55.3% 0.195 38.402)" height="0.7021614135548502" width="1" x="6" y="0.2978385864451498"/><rect fill="oklch(55.3% 0.195 38.402)" height="0.7392885500319284" width="1" x="7" y="0.2607114499680716"/><rect fill="oklch(55.3% 0.195 38.402)" height="0.7501869909434734" width="1" x="8" y="0.2498130090565266"/><rect fill="oklch(55.3% 0.195 38.402)" height="0.7277697201852827" width="1" x="9" y="0.27223027981471726"/><rect fill="oklch(55.3% 0.195 38.402)" height="0.8332530762331319" width="1" x="10" y="0.16674692376686806"/><rect fill="oklch(55.3% 0.195 38.402)" height="0.6912350848212385" width="1" x="11" y="0.3087649151787615"/><rect fill="oklch(55.3% 0.195 38.402)" height="0.8196669025612454" width="1" x="12" y="0.18033309743875459"/><rect fill="oklch(55.3% 0.195 38.402)" height="0.7245520546489532" width="1" x="13" y="0.2754479453510468"/><rect fill="oklch(55.3% 0.195 38.402)" height="0.7959393463468125" width="1" x="14" y="0.20406065365318748"/><rect fill="oklch(55.3% 0.195 38.402)" height="0.7869181326830086" width="1" x="15" y="0.2130818673169914"/><rect fill="oklch(55.3% 0.195 38.402)" height="0.7660025301814847" width="1" x="16" y="0.23399746981851532"/><rect fill="oklch(55.3% 0.195 38.402)" height="0.8407481240607116" width="1" x="17" y="0.15925187593928836"/><rect fill="oklch(55.3% 0.195 38.402)" height="0.7803853677241218" width="1" x="18" y="0.21961463227587819"/><rect fill="oklch(55.3% 0.195 38.402)" height="0.8597012228780511" width="1" x="19" y="0.14029877712194894"/><rect fill="oklch(55.3% 0.195 38.402)" height="0.769873070536683" width="1" x="20" y="0.23012692946331703"/><rect fill="oklch(55.3% 0.195 38.402)" height="0.8631174549964737" width="1" x="21" y="0.13688254500352626"/><rect fill="oklch(55.3% 0.195 38.402)" height="0.8980247539170849" width="1" x="22" y="0.10197524608291508"/><rect fill="oklch(55.3% 0.195 38.402)" height="0.8812192985428826" width="1" x="23" y="0.11878070145711739"/><rect fill="oklch(55.3% 0.195 38.402)" height="0.9029733446072357" width="1" x="24" y="0.09702665539276434"/><rect fill="oklch(55.3% 0.195 38.402)" height="0.9170459574207677" width="1" x="25" y="0.08295404257923233"/><rect fill="oklch(55.3% 0.195 38.402)" height="0.9429992237902155" width="1" x="26" y="0.0570007762097845"/><rect fill="oklch(55.3% 0.195 38.402)" height="0.906930638546385" width="1" x="27" y="0.093069361453615"/><rect fill="oklch(55.3% 0.195 38.402)" height="0.9715111843986081" width="1" x="28" y="0.028488815601391937"/><rect fill="oklch(55.3% 0.195 38.402)" height="0.9444372674041536" width="1" x="29" y="0.05556273259584643"/><rect fill="oklch(55.3% 0.195 38.402)" height="0.9031148453929859" width="1" x="30" y="0.09688515460701408"/><rect fill="oklch(55.3% 0.195 38.402)" height="0.8773011639739167" width="1" x="31" y="0.12269883602608334"/><rect fill="oklch(55.3% 0.195 38.402)" height="0.921480875557365" width="1" x="32" y="0.07851912444263498"/><rect fill="oklch(55.3% 0.195 38.402)" height="0.9544507470012139" width="1" x="33" y="0.045549252998786094"/><rect fill="oklch(55.3% 0.195 38.402)" height="0.9285153575069016" width="1" x="34" y="0.07148464249309838"/><rect fill="oklch(55.3% 0.195 38.402)" height="0.9624444733313203" width="1" x="35" y="0.03755552666867967"/><rect fill="oklch(55.3% 0.195 38.402)" height="0.9807421398794796" width="1" x="36" y="0.019257860120520442"/><rect fill="oklch(55.3% 0.195 38.402)" height="0.9314245493123207" width="1" x="37" y="0.06857545068767934"/><rect fill="oklch(55.3% 0.195 38.402)" height="0.8693361086164436" width="1" x="38" y="0.13066389138355639"/><rect fill="oklch(55.3% 0.195 38.402)" height="0.930849977740379" width="1" x="39" y="0.06915002225962097"/><rect fill="oklch(55.3% 0.195 38.402)" height="0.9283869286007839" width="1" x="40" y="0.07161307139921613"/><rect fill="oklch(55.3% 0.195 38.402)" height="0.9141346352373986" width="1" x="41" y="0.08586536476260143"/><rect fill="oklch(55.3% 0.195 38.402)" height="1" width="1" x="42" y="0"/><rect fill="oklch(55.3% 0.195 38.402)" height="0.9427580684109265" width="1" x="43" y="0.057241931589073536"/><rect fill="oklch(55.3% 0.195 38.402)" height="0.9642725709668741" width="1" x="44" y="0.03572742903312587"/><rect fill="oklch(55.3% 0.195 38.402)" height="0.8882005357066066" width="1" x="45" y="0.11179946429339338"/><rect fill="oklch(55.3% 0.195 38.402)" height="0.9255704370672897" width="1" x="46" y="0.0744295629327103"/><rect fill="oklch(55.3% 0.195 38.402)" height="0.9144924040075116" width="1" x="47" y="0.08550759599248836"/><rect fill="oklch(55.3% 0.195 38.402)" height="0.9299975827774936" width="1" x="48" y="0.07000241722250644"/><rect fill="oklch(55.3% 0.195 38.402)" height="0.939676997786558" width="1" x="49" y="0.060323002213442"/><rect fill="oklch(55.3% 0.195 38.402)" height="0.9294701888416437" width="1" x="50" y="0.07052981115835633"/><rect fill="oklch(55.3% 0.195 38.402)" height="0.4991001910497889" width="1" x="51" y="0.500899808950211"/><rect fill="oklch(55.3% 0.195 38.402)" height="0.4098546218864061" width="1" x="52" y="0.5901453781135939"/><rect fill="oklch(55.3% 0.195 38.402)" height="0.4294695600673822" width="1" x="53" y="0.5705304399326179"/><rect fill="oklch(55.3% 0.195 38.402)" height="0.4123106169271622" width="1" x="54" y="0.5876893830728378"/><rect fill="oklch(55.3% 0.195 38.402)" height="0.40877863142422743" width="1" x="55" y="0.5912213685757726"/><rect fill="oklch(55.3% 0.195 38.402)" height="0.4281996263839463" width="1" x="56" y="0.5718003736160537"/><rect fill="oklch(55.3% 0.195 38.402)" height="0.4171495022616532" width="1" x="57" y="0.5828504977383469"/><rect fill="oklch(55.3% 0.195 38.402)" height="0.9319282315638103" width="1" x="58" y="0.06807176843618967"/><rect fill="oklch(55.3% 0.195 38.402)" height="0.8589939981691541" width="1" x="59" y="0.14100600183084588"/><rect fill="oklch(55.3% 0.195 38.402)" height="0.87807294257723" width="1" x="60" y="0.12192705742276999"/><rect fill="oklch(55.3% 0.195 38.402)" height="0.8345262368836882" width="1" x="61" y="0.1654737631163118"/><rect fill="oklch(55.3% 0.195 38.402)" height="0.8315358530365599" width="1" x="62" y="0.16846414696344014"/><rect fill="oklch(55.3% 0.195 38.402)" height="0.8511209286400776" width="1" x="63" y="0.1488790713599224"/><rect fill="oklch(55.3% 0.195 38.402)" height="0.7218064241427834" width="1" x="64" y="0.2781935758572166"/><rect fill="oklch(55.3% 0.195 38.402)" height="0.9617181336382749" width="1" x="65" y="0.03828186636172515"/><rect fill="oklch(55.3% 0.195 38.402)" height="0.876374877317585" width="1" x="66" y="0.12362512268241499"/><rect fill="oklch(55.3% 0.195 38.402)" height="0.8825370496591497" width="1" x="67" y="0.1174629503408503"/><rect fill="oklch(55.3% 0.195 38.402)" height="0.8393257127246435" width="1" x="68" y="0.1606742872753565"/><rect fill="oklch(55.3% 0.195 38.402)" height="0.8189535246319909" width="1" x="69" y="0.1810464753680091"/><rect fill="oklch(55.3% 0.195 38.402)" height="0.82801260273505" width="1" x="70" y="0.17198739726495005"/><rect fill="oklch(55.3% 0.195 38.402)" height="0.7947044646644518" width="1" x="71" y="0.20529553533554823"/><rect fill="oklch(55.3% 0.195 38.402)" height="0.8158090904828625" width="1" x="72" y="0.18419090951713746"/><rect fill="oklch(55.3% 0.195 38.402)" height="0.8309326196230636" width="1" x="73" y="0.16906738037693636"/><rect fill="oklch(55.3% 0.195 38.402)" height="0.8500827988490598" width="1" x="74" y="0.1499172011509402"/><rect fill="oklch(55.3% 0.195 38.402)" height="0.8736029531749935" width="1" x="75" y="0.12639704682500652"/><rect fill="oklch(55.3% 0.195 38.402)" height="0.8606890869949538" width="1" x="76" y="0.13931091300504617"/><rect fill="oklch(55.3% 0.195 38.402)" height="0.8710583220415745" width="1" x="77" y="0.12894167795842548"/><rect fill="oklch(55.3% 0.195 38.402)" height="0.8245236939940527" width="1" x="78" y="0.17547630600594732"/><rect fill="oklch(55.3% 0.195 38.402)" height="0.8570907446509584" width="1" x="79" y="0.14290925534904164"/><rect fill="oklch(55.3% 0.195 38.402)" height="0.8816020447399664" width="1" x="80" y="0.1183979552600336"/><rect fill="oklch(55.3% 0.195 38.402)" height="0.8952738590644848" width="1" x="81" y="0.10472614093551524"/><rect fill="oklch(55.3% 0.195 38.402)" height="0.8766259955330917" width="1" x="82" y="0.12337400446690827"/><rect fill="oklch(55.3% 0.195 38.402)" height="0.9093069079268993" width="1" x="83" y="0.09069309207310072"/><rect fill="oklch(55.3% 0.195 38.402)" height="0.8782496766572531" width="1" x="84" y="0.12175032334274694"/><rect fill="oklch(55.3% 0.195 38.402)" height="0.8749052773094156" width="1" x="85" y="0.12509472269058441"/><rect fill="oklch(55.3% 0.195 38.402)" height="0.9243659311548078" width="1" x="86" y="0.07563406884519219"/><rect fill="oklch(55.3% 0.195 38.402)" height="0.8510580587793694" width="1" x="87" y="0.14894194122063065"/><rect fill="oklch(55.3% 0.195 38.402)" height="0.907304710063725" width="1" x="88" y="0.09269528993627496"/><rect fill="oklch(55.3% 0.195 38.402)" height="0.876341241583964" width="1" x="89" y="0.12365875841603602"/><rect fill="oklch(55.3% 0.195 38.402)" height="0.8888498226379415" width="1" x="90" y="0.11115017736205846"/><rect fill="oklch(55.3% 0.195 38.402)" height="0.8610323565669369" width="1" x="91" y="0.13896764343306311"/><rect fill="oklch(55.3% 0.195 38.402)" height="0.936689023848457" width="1" x="92" y="0.06331097615154302"/><rect fill="oklch(55.3% 0.195 38.402)" height="0.888175305000537" width="1" x="93" y="0.11182469499946301"/><rect fill="oklch(55.3% 0.195 38.402)" height="0.9169771196023838" width="1" x="94" y="0.08302288039761618"/><rect fill="oklch(55.3% 0.195 38.402)" height="0.9333966797624406" width="1" x="95" y="0.06660332023755944"/><rect fill="oklch(55.3% 0.195 38.402)" height="0.8832816773287396" width="1" x="96" y="0.11671832267126037"/><rect fill="oklch(55.3% 0.195 38.402)" height="0.6130777198323225" width="1" x="97" y="0.3869222801676775"/><rect fill="oklch(55.3% 0.195 38.402)" height="0.27523197122087245" width="1" x="98" y="0.7247680287791276"/><rect fill="oklch(55.3% 0.195 38.402)" height="0.03735834553892313" width="1" x="99" y="0.9626416544610769"/></svg>